<svg width="71" height="52" viewBox="0 0 71 52" fill="none" xmlns="http://www.w3.org/2000/svg">
<path d="M35.499 17.2507V24.7507M39.249 21.0007H31.749M44.499 21.0007C44.499 16.032 40.4678 12.0007 35.499 12.0007C30.5303 12.0007 26.499 16.032 26.499 21.0007C26.499 25.9695 30.5303 30.0007 35.499 30.0007C40.4678 30.0007 44.499 25.9695 44.499 21.0007Z" stroke="#9597A7" stroke-width="1.5" stroke-linecap="round"/>
<path d="M5.6674 45.438H2.4664L1.9164 47H0.607398L3.3464 39.344H4.7984L7.5374 47H6.2174L5.6674 45.438ZM5.3154 44.415L4.0724 40.862L2.8184 44.415H5.3154ZM8.31032 43.942C8.31032 43.3333 8.43499 42.7943 8.68432 42.325C8.94099 41.8557 9.28565 41.4927 9.71832 41.236C10.1583 40.972 10.646 40.84 11.1813 40.84C11.5773 40.84 11.966 40.928 12.3473 41.104C12.736 41.2727 13.044 41.5 13.2713 41.786V38.86H14.5363V47H13.2713V46.087C13.066 46.3803 12.78 46.6223 12.4133 46.813C12.054 47.0037 11.6397 47.099 11.1703 47.099C10.6423 47.099 10.1583 46.967 9.71832 46.703C9.28565 46.4317 8.94099 46.0577 8.68432 45.581C8.43499 45.097 8.31032 44.5507 8.31032 43.942ZM13.2713 43.964C13.2713 43.546 13.1833 43.183 13.0073 42.875C12.8387 42.567 12.615 42.3323 12.3363 42.171C12.0577 42.0097 11.757 41.929 11.4343 41.929C11.1117 41.929 10.811 42.0097 10.5323 42.171C10.2537 42.325 10.0263 42.556 9.85032 42.864C9.68165 43.1647 9.59732 43.524 9.59732 43.942C9.59732 44.36 9.68165 44.7267 9.85032 45.042C10.0263 45.3573 10.2537 45.5993 10.5323 45.768C10.8183 45.9293 11.119 46.01 11.4343 46.01C11.757 46.01 12.0577 45.9293 12.3363 45.768C12.615 45.6067 12.8387 45.372 13.0073 45.064C13.1833 44.7487 13.2713 44.382 13.2713 43.964ZM15.7654 43.942C15.7654 43.3333 15.8901 42.7943 16.1394 42.325C16.3961 41.8557 16.7407 41.4927 17.1734 41.236C17.6134 40.972 18.1011 40.84 18.6364 40.84C19.0324 40.84 19.4211 40.928 19.8024 41.104C20.1911 41.2727 20.4991 41.5 20.7264 41.786V38.86H21.9914V47H20.7264V46.087C20.5211 46.3803 20.2351 46.6223 19.8684 46.813C19.5091 47.0037 19.0947 47.099 18.6254 47.099C18.0974 47.099 17.6134 46.967 17.1734 46.703C16.7407 46.4317 16.3961 46.0577 16.1394 45.581C15.8901 45.097 15.7654 44.5507 15.7654 43.942ZM20.7264 43.964C20.7264 43.546 20.6384 43.183 20.4624 42.875C20.2937 42.567 20.0701 42.3323 19.7914 42.171C19.5127 42.0097 19.2121 41.929 18.8894 41.929C18.5667 41.929 18.2661 42.0097 17.9874 42.171C17.7087 42.325 17.4814 42.556 17.3054 42.864C17.1367 43.1647 17.0524 43.524 17.0524 43.942C17.0524 44.36 17.1367 44.7267 17.3054 45.042C17.4814 45.3573 17.7087 45.5993 17.9874 45.768C18.2734 45.9293 18.5741 46.01 18.8894 46.01C19.2121 46.01 19.5127 45.9293 19.7914 45.768C20.0701 45.6067 20.2937 45.372 20.4624 45.064C20.6384 44.7487 20.7264 44.382 20.7264 43.964ZM30.4669 47L28.7069 43.942H27.7499V47H26.4959V39.355H29.1359C29.7226 39.355 30.2176 39.4577 30.6209 39.663C31.0316 39.8683 31.3359 40.1433 31.5339 40.488C31.7392 40.8327 31.8419 41.2177 31.8419 41.643C31.8419 42.1417 31.6952 42.5963 31.4019 43.007C31.1159 43.4103 30.6722 43.6853 30.0709 43.832L31.9629 47H30.4669ZM27.7499 42.941H29.1359C29.6052 42.941 29.9572 42.8237 30.1919 42.589C30.4339 42.3543 30.5549 42.039 30.5549 41.643C30.5549 41.247 30.4376 40.939 30.2029 40.719C29.9682 40.4917 29.6126 40.378 29.1359 40.378H27.7499V42.941ZM39.0011 43.821C39.0011 44.0483 38.9864 44.2537 38.9571 44.437H34.3261C34.3628 44.921 34.5424 45.3097 34.8651 45.603C35.1878 45.8963 35.5838 46.043 36.0531 46.043C36.7278 46.043 37.2044 45.7607 37.4831 45.196H38.8361C38.6528 45.7533 38.3191 46.2117 37.8351 46.571C37.3584 46.923 36.7644 47.099 36.0531 47.099C35.4738 47.099 34.9531 46.9707 34.4911 46.714C34.0364 46.45 33.6771 46.0833 33.4131 45.614C33.1564 45.1373 33.0281 44.5873 33.0281 43.964C33.0281 43.3407 33.1528 42.7943 33.4021 42.325C33.6588 41.8483 34.0144 41.4817 34.4691 41.225C34.9311 40.9683 35.4591 40.84 36.0531 40.84C36.6251 40.84 37.1348 40.9647 37.5821 41.214C38.0294 41.4633 38.3778 41.8153 38.6271 42.27C38.8764 42.7173 39.0011 43.2343 39.0011 43.821ZM37.6921 43.425C37.6848 42.963 37.5198 42.5927 37.1971 42.314C36.8744 42.0353 36.4748 41.896 35.9981 41.896C35.5654 41.896 35.1951 42.0353 34.8871 42.314C34.5791 42.5853 34.3958 42.9557 34.3371 43.425H37.6921ZM39.8172 43.942C39.8172 43.3333 39.9418 42.7943 40.1912 42.325C40.4478 41.8557 40.7925 41.4927 41.2252 41.236C41.6652 40.972 42.1528 40.84 42.6882 40.84C43.1575 40.84 43.5718 40.9353 43.9312 41.126C44.2978 41.3167 44.5802 41.5477 44.7782 41.819V40.939H46.0432V49.882H44.7782V46.12C44.5802 46.3913 44.2942 46.6223 43.9202 46.813C43.5462 47.0037 43.1208 47.099 42.6442 47.099C42.1235 47.099 41.6468 46.967 41.2142 46.703C40.7888 46.4317 40.4478 46.0577 40.1912 45.581C39.9418 45.097 39.8172 44.5507 39.8172 43.942ZM44.7782 43.964C44.7782 43.546 44.6902 43.183 44.5142 42.875C44.3455 42.567 44.1218 42.3323 43.8432 42.171C43.5645 42.0097 43.2638 41.929 42.9412 41.929C42.6185 41.929 42.3178 42.0097 42.0392 42.171C41.7605 42.325 41.5332 42.556 41.3572 42.864C41.1885 43.1647 41.1042 43.524 41.1042 43.942C41.1042 44.36 41.1885 44.7267 41.3572 45.042C41.5332 45.3573 41.7605 45.5993 42.0392 45.768C42.3252 45.9293 42.6258 46.01 42.9412 46.01C43.2638 46.01 43.5645 45.9293 43.8432 45.768C44.1218 45.6067 44.3455 45.372 44.5142 45.064C44.6902 44.7487 44.7782 44.382 44.7782 43.964ZM53.1792 40.939V47H51.9252V46.285C51.7272 46.5343 51.4669 46.7323 51.1442 46.879C50.8289 47.0183 50.4916 47.088 50.1322 47.088C49.6556 47.088 49.2266 46.989 48.8452 46.791C48.4712 46.593 48.1742 46.2997 47.9542 45.911C47.7416 45.5223 47.6352 45.053 47.6352 44.503V40.939H48.8782V44.316C48.8782 44.8587 49.0139 45.2767 49.2852 45.57C49.5566 45.856 49.9269 45.999 50.3962 45.999C50.8656 45.999 51.2359 45.856 51.5072 45.57C51.7859 45.2767 51.9252 44.8587 51.9252 44.316V40.939H53.1792ZM60.3888 43.821C60.3888 44.0483 60.3741 44.2537 60.3448 44.437H55.7138C55.7505 44.921 55.9301 45.3097 56.2528 45.603C56.5755 45.8963 56.9715 46.043 57.4408 46.043C58.1155 46.043 58.5921 45.7607 58.8708 45.196H60.2238C60.0405 45.7533 59.7068 46.2117 59.2228 46.571C58.7461 46.923 58.1521 47.099 57.4408 47.099C56.8615 47.099 56.3408 46.9707 55.8788 46.714C55.4241 46.45 55.0648 46.0833 54.8008 45.614C54.5441 45.1373 54.4158 44.5873 54.4158 43.964C54.4158 43.3407 54.5405 42.7943 54.7898 42.325C55.0465 41.8483 55.4021 41.4817 55.8568 41.225C56.3188 40.9683 56.8468 40.84 57.4408 40.84C58.0128 40.84 58.5225 40.9647 58.9698 41.214C59.4171 41.4633 59.7655 41.8153 60.0148 42.27C60.2641 42.7173 60.3888 43.2343 60.3888 43.821ZM59.0798 43.425C59.0725 42.963 58.9075 42.5927 58.5848 42.314C58.2621 42.0353 57.8625 41.896 57.3858 41.896C56.9531 41.896 56.5828 42.0353 56.2748 42.314C55.9668 42.5853 55.7835 42.9557 55.7248 43.425H59.0798ZM63.8229 47.099C63.3462 47.099 62.9172 47.0147 62.5359 46.846C62.1619 46.67 61.8649 46.4353 61.6449 46.142C61.4249 45.8413 61.3075 45.5077 61.2929 45.141H62.5909C62.6129 45.3977 62.7339 45.614 62.9539 45.79C63.1812 45.9587 63.4635 46.043 63.8009 46.043C64.1529 46.043 64.4242 45.977 64.6149 45.845C64.8129 45.7057 64.9119 45.5297 64.9119 45.317C64.9119 45.0897 64.8019 44.921 64.5819 44.811C64.3692 44.701 64.0282 44.58 63.5589 44.448C63.1042 44.3233 62.7339 44.2023 62.4479 44.085C62.1619 43.9677 61.9125 43.788 61.6999 43.546C61.4945 43.304 61.3919 42.985 61.3919 42.589C61.3919 42.2663 61.4872 41.973 61.6779 41.709C61.8685 41.4377 62.1399 41.225 62.4919 41.071C62.8512 40.917 63.2619 40.84 63.7239 40.84C64.4132 40.84 64.9669 41.016 65.3849 41.368C65.8102 41.7127 66.0375 42.1857 66.0669 42.787H64.8129C64.7909 42.5157 64.6809 42.2993 64.4829 42.138C64.2849 41.9767 64.0172 41.896 63.6799 41.896C63.3499 41.896 63.0969 41.9583 62.9209 42.083C62.7449 42.2077 62.6569 42.3727 62.6569 42.578C62.6569 42.7393 62.7155 42.875 62.8329 42.985C62.9502 43.095 63.0932 43.183 63.2619 43.249C63.4305 43.3077 63.6799 43.3847 64.0099 43.48C64.4499 43.5973 64.8092 43.7183 65.0879 43.843C65.3739 43.9603 65.6195 44.1363 65.8249 44.371C66.0302 44.6057 66.1365 44.9173 66.1439 45.306C66.1439 45.6507 66.0485 45.9587 65.8579 46.23C65.6672 46.5013 65.3959 46.714 65.0439 46.868C64.6992 47.022 64.2922 47.099 63.8229 47.099ZM68.9618 41.962V45.317C68.9618 45.5443 69.0132 45.7093 69.1158 45.812C69.2258 45.9073 69.4092 45.955 69.6658 45.955H70.4358V47H69.4458C68.8812 47 68.4485 46.868 68.1478 46.604C67.8472 46.34 67.6968 45.911 67.6968 45.317V41.962H66.9818V40.939H67.6968V39.432H68.9618V40.939H70.4358V41.962H68.9618Z" fill="#9597A7"/>
</svg>
