<svg width="72" height="52" viewBox="0 0 72 52" fill="none" xmlns="http://www.w3.org/2000/svg">
<mask id="path-1-inside-1_15108_35848" fill="white">
<path d="M4.5 0H66.5V52H4.5V0Z"/>
</mask>
<path d="M4.5 1H66.5V-1H4.5V1Z" fill="#0980D0" mask="url(#path-1-inside-1_15108_35848)"/>
<rect x="3" width="65" height="1" fill="#0980D0"/>
<path d="M35.999 11.2502C30.6229 11.2502 26.249 15.6241 26.249 21.0002C26.249 26.3762 30.6229 30.7502 35.999 30.7502C41.3751 30.7502 45.749 26.3762 45.749 21.0002C45.749 15.6241 41.3751 11.2502 35.999 11.2502ZM40.499 21.7502H36.749V25.5002H35.249V21.7502H31.499V20.2502H35.249V16.5002H36.749V20.2502H40.499V21.7502Z" fill="#0980D0"/>
<path d="M6.1674 45.438H2.9664L2.4164 47H1.1074L3.8464 39.344H5.2984L8.0374 47H6.7174L6.1674 45.438ZM5.8154 44.415L4.5724 40.862L3.3184 44.415H5.8154ZM8.81032 43.942C8.81032 43.3333 8.93499 42.7943 9.18432 42.325C9.44099 41.8557 9.78565 41.4927 10.2183 41.236C10.6583 40.972 11.146 40.84 11.6813 40.84C12.0773 40.84 12.466 40.928 12.8473 41.104C13.236 41.2727 13.544 41.5 13.7713 41.786V38.86H15.0363V47H13.7713V46.087C13.566 46.3803 13.28 46.6223 12.9133 46.813C12.554 47.0037 12.1397 47.099 11.6703 47.099C11.1423 47.099 10.6583 46.967 10.2183 46.703C9.78565 46.4317 9.44099 46.0577 9.18432 45.581C8.93499 45.097 8.81032 44.5507 8.81032 43.942ZM13.7713 43.964C13.7713 43.546 13.6833 43.183 13.5073 42.875C13.3387 42.567 13.115 42.3323 12.8363 42.171C12.5577 42.0097 12.257 41.929 11.9343 41.929C11.6117 41.929 11.311 42.0097 11.0323 42.171C10.7537 42.325 10.5263 42.556 10.3503 42.864C10.1817 43.1647 10.0973 43.524 10.0973 43.942C10.0973 44.36 10.1817 44.7267 10.3503 45.042C10.5263 45.3573 10.7537 45.5993 11.0323 45.768C11.3183 45.9293 11.619 46.01 11.9343 46.01C12.257 46.01 12.5577 45.9293 12.8363 45.768C13.115 45.6067 13.3387 45.372 13.5073 45.064C13.6833 44.7487 13.7713 44.382 13.7713 43.964ZM16.2654 43.942C16.2654 43.3333 16.3901 42.7943 16.6394 42.325C16.8961 41.8557 17.2407 41.4927 17.6734 41.236C18.1134 40.972 18.6011 40.84 19.1364 40.84C19.5324 40.84 19.9211 40.928 20.3024 41.104C20.6911 41.2727 20.9991 41.5 21.2264 41.786V38.86H22.4914V47H21.2264V46.087C21.0211 46.3803 20.7351 46.6223 20.3684 46.813C20.0091 47.0037 19.5947 47.099 19.1254 47.099C18.5974 47.099 18.1134 46.967 17.6734 46.703C17.2407 46.4317 16.8961 46.0577 16.6394 45.581C16.3901 45.097 16.2654 44.5507 16.2654 43.942ZM21.2264 43.964C21.2264 43.546 21.1384 43.183 20.9624 42.875C20.7937 42.567 20.5701 42.3323 20.2914 42.171C20.0127 42.0097 19.7121 41.929 19.3894 41.929C19.0667 41.929 18.7661 42.0097 18.4874 42.171C18.2087 42.325 17.9814 42.556 17.8054 42.864C17.6367 43.1647 17.5524 43.524 17.5524 43.942C17.5524 44.36 17.6367 44.7267 17.8054 45.042C17.9814 45.3573 18.2087 45.5993 18.4874 45.768C18.7734 45.9293 19.0741 46.01 19.3894 46.01C19.7121 46.01 20.0127 45.9293 20.2914 45.768C20.5701 45.6067 20.7937 45.372 20.9624 45.064C21.1384 44.7487 21.2264 44.382 21.2264 43.964ZM30.9669 47L29.2069 43.942H28.2499V47H26.9959V39.355H29.6359C30.2226 39.355 30.7176 39.4577 31.1209 39.663C31.5316 39.8683 31.8359 40.1433 32.0339 40.488C32.2392 40.8327 32.3419 41.2177 32.3419 41.643C32.3419 42.1417 32.1952 42.5963 31.9019 43.007C31.6159 43.4103 31.1722 43.6853 30.5709 43.832L32.4629 47H30.9669ZM28.2499 42.941H29.6359C30.1052 42.941 30.4572 42.8237 30.6919 42.589C30.9339 42.3543 31.0549 42.039 31.0549 41.643C31.0549 41.247 30.9376 40.939 30.7029 40.719C30.4682 40.4917 30.1126 40.378 29.6359 40.378H28.2499V42.941ZM39.5011 43.821C39.5011 44.0483 39.4864 44.2537 39.4571 44.437H34.8261C34.8628 44.921 35.0424 45.3097 35.3651 45.603C35.6878 45.8963 36.0838 46.043 36.5531 46.043C37.2278 46.043 37.7044 45.7607 37.9831 45.196H39.3361C39.1528 45.7533 38.8191 46.2117 38.3351 46.571C37.8584 46.923 37.2644 47.099 36.5531 47.099C35.9738 47.099 35.4531 46.9707 34.9911 46.714C34.5364 46.45 34.1771 46.0833 33.9131 45.614C33.6564 45.1373 33.5281 44.5873 33.5281 43.964C33.5281 43.3407 33.6528 42.7943 33.9021 42.325C34.1588 41.8483 34.5144 41.4817 34.9691 41.225C35.4311 40.9683 35.9591 40.84 36.5531 40.84C37.1251 40.84 37.6348 40.9647 38.0821 41.214C38.5294 41.4633 38.8778 41.8153 39.1271 42.27C39.3764 42.7173 39.5011 43.2343 39.5011 43.821ZM38.1921 43.425C38.1848 42.963 38.0198 42.5927 37.6971 42.314C37.3744 42.0353 36.9748 41.896 36.4981 41.896C36.0654 41.896 35.6951 42.0353 35.3871 42.314C35.0791 42.5853 34.8958 42.9557 34.8371 43.425H38.1921ZM40.3172 43.942C40.3172 43.3333 40.4418 42.7943 40.6912 42.325C40.9478 41.8557 41.2925 41.4927 41.7252 41.236C42.1652 40.972 42.6528 40.84 43.1882 40.84C43.6575 40.84 44.0718 40.9353 44.4312 41.126C44.7978 41.3167 45.0802 41.5477 45.2782 41.819V40.939H46.5432V49.882H45.2782V46.12C45.0802 46.3913 44.7942 46.6223 44.4202 46.813C44.0462 47.0037 43.6208 47.099 43.1442 47.099C42.6235 47.099 42.1468 46.967 41.7142 46.703C41.2888 46.4317 40.9478 46.0577 40.6912 45.581C40.4418 45.097 40.3172 44.5507 40.3172 43.942ZM45.2782 43.964C45.2782 43.546 45.1902 43.183 45.0142 42.875C44.8455 42.567 44.6218 42.3323 44.3432 42.171C44.0645 42.0097 43.7638 41.929 43.4412 41.929C43.1185 41.929 42.8178 42.0097 42.5392 42.171C42.2605 42.325 42.0332 42.556 41.8572 42.864C41.6885 43.1647 41.6042 43.524 41.6042 43.942C41.6042 44.36 41.6885 44.7267 41.8572 45.042C42.0332 45.3573 42.2605 45.5993 42.5392 45.768C42.8252 45.9293 43.1258 46.01 43.4412 46.01C43.7638 46.01 44.0645 45.9293 44.3432 45.768C44.6218 45.6067 44.8455 45.372 45.0142 45.064C45.1902 44.7487 45.2782 44.382 45.2782 43.964ZM53.6792 40.939V47H52.4252V46.285C52.2272 46.5343 51.9669 46.7323 51.6442 46.879C51.3289 47.0183 50.9916 47.088 50.6322 47.088C50.1556 47.088 49.7266 46.989 49.3452 46.791C48.9712 46.593 48.6742 46.2997 48.4542 45.911C48.2416 45.5223 48.1352 45.053 48.1352 44.503V40.939H49.3782V44.316C49.3782 44.8587 49.5139 45.2767 49.7852 45.57C50.0566 45.856 50.4269 45.999 50.8962 45.999C51.3656 45.999 51.7359 45.856 52.0072 45.57C52.2859 45.2767 52.4252 44.8587 52.4252 44.316V40.939H53.6792ZM60.8888 43.821C60.8888 44.0483 60.8741 44.2537 60.8448 44.437H56.2138C56.2505 44.921 56.4301 45.3097 56.7528 45.603C57.0755 45.8963 57.4715 46.043 57.9408 46.043C58.6155 46.043 59.0921 45.7607 59.3708 45.196H60.7238C60.5405 45.7533 60.2068 46.2117 59.7228 46.571C59.2461 46.923 58.6521 47.099 57.9408 47.099C57.3615 47.099 56.8408 46.9707 56.3788 46.714C55.9241 46.45 55.5648 46.0833 55.3008 45.614C55.0441 45.1373 54.9158 44.5873 54.9158 43.964C54.9158 43.3407 55.0405 42.7943 55.2898 42.325C55.5465 41.8483 55.9021 41.4817 56.3568 41.225C56.8188 40.9683 57.3468 40.84 57.9408 40.84C58.5128 40.84 59.0225 40.9647 59.4698 41.214C59.9171 41.4633 60.2655 41.8153 60.5148 42.27C60.7641 42.7173 60.8888 43.2343 60.8888 43.821ZM59.5798 43.425C59.5725 42.963 59.4075 42.5927 59.0848 42.314C58.7621 42.0353 58.3625 41.896 57.8858 41.896C57.4531 41.896 57.0828 42.0353 56.7748 42.314C56.4668 42.5853 56.2835 42.9557 56.2248 43.425H59.5798ZM64.3229 47.099C63.8462 47.099 63.4172 47.0147 63.0359 46.846C62.6619 46.67 62.3649 46.4353 62.1449 46.142C61.9249 45.8413 61.8075 45.5077 61.7929 45.141H63.0909C63.1129 45.3977 63.2339 45.614 63.4539 45.79C63.6812 45.9587 63.9635 46.043 64.3009 46.043C64.6529 46.043 64.9242 45.977 65.1149 45.845C65.3129 45.7057 65.4119 45.5297 65.4119 45.317C65.4119 45.0897 65.3019 44.921 65.0819 44.811C64.8692 44.701 64.5282 44.58 64.0589 44.448C63.6042 44.3233 63.2339 44.2023 62.9479 44.085C62.6619 43.9677 62.4125 43.788 62.1999 43.546C61.9945 43.304 61.8919 42.985 61.8919 42.589C61.8919 42.2663 61.9872 41.973 62.1779 41.709C62.3685 41.4377 62.6399 41.225 62.9919 41.071C63.3512 40.917 63.7619 40.84 64.2239 40.84C64.9132 40.84 65.4669 41.016 65.8849 41.368C66.3102 41.7127 66.5375 42.1857 66.5669 42.787H65.3129C65.2909 42.5157 65.1809 42.2993 64.9829 42.138C64.7849 41.9767 64.5172 41.896 64.1799 41.896C63.8499 41.896 63.5969 41.9583 63.4209 42.083C63.2449 42.2077 63.1569 42.3727 63.1569 42.578C63.1569 42.7393 63.2155 42.875 63.3329 42.985C63.4502 43.095 63.5932 43.183 63.7619 43.249C63.9305 43.3077 64.1799 43.3847 64.5099 43.48C64.9499 43.5973 65.3092 43.7183 65.5879 43.843C65.8739 43.9603 66.1195 44.1363 66.3249 44.371C66.5302 44.6057 66.6365 44.9173 66.6439 45.306C66.6439 45.6507 66.5485 45.9587 66.3579 46.23C66.1672 46.5013 65.8959 46.714 65.5439 46.868C65.1992 47.022 64.7922 47.099 64.3229 47.099ZM69.4618 41.962V45.317C69.4618 45.5443 69.5132 45.7093 69.6158 45.812C69.7258 45.9073 69.9092 45.955 70.1658 45.955H70.9358V47H69.9458C69.3812 47 68.9485 46.868 68.6478 46.604C68.3472 46.34 68.1968 45.911 68.1968 45.317V41.962H67.4818V40.939H68.1968V39.432H69.4618V40.939H70.9358V41.962H69.4618Z" fill="#0980D0"/>
</svg>
