<svg width="65" height="52" viewBox="0 0 65 52" fill="none" xmlns="http://www.w3.org/2000/svg">
<mask id="path-1-inside-1_1_434" fill="white">
<path d="M1.5 0H63.5V52H1.5V0Z"/>
</mask>
<path d="M1.5 1H63.5V-1H1.5V1Z" fill="#0980D0" mask="url(#path-1-inside-1_1_434)"/>
<rect width="65" height="1" fill="#0980D0"/>
<path fill-rule="evenodd" clip-rule="evenodd" d="M28.0453 12.8642C29.2267 11.6706 30.8291 11 32.5 11C34.1708 11 35.7733 11.6706 36.9547 12.8642C38.1362 14.0578 38.8 15.6766 38.8 17.3647C38.8 20.413 39.4453 22.306 40.04 23.4076C40.3387 23.9607 40.6294 24.3235 40.8314 24.5389C40.9326 24.6468 41.0122 24.7184 41.0601 24.7587C41.084 24.7789 41.1001 24.7913 41.107 24.7965L41.1096 24.7984C41.4322 25.0223 41.575 25.4319 41.4613 25.8113C41.3464 26.1948 40.9965 26.457 40.5999 26.457H24.4001C24.0035 26.457 23.6536 26.1948 23.5387 25.8113C23.425 25.4319 23.5678 25.0223 23.8904 24.7984L23.893 24.7965C23.8999 24.7913 23.916 24.7789 23.9399 24.7587C23.9878 24.7184 24.0674 24.6468 24.1686 24.5389C24.3706 24.3235 24.6613 23.9607 24.96 23.4076C25.5547 22.306 26.2 20.413 26.2 17.3647C26.2 15.6766 26.8638 14.0578 28.0453 12.8642ZM37.3288 16.7146L37.0541 16.2569C37.3718 16.2597 37.5185 16.3523 37.3288 16.7146ZM36.6153 15.5254L36.0177 14.5294C36.2595 14.8356 36.4599 15.1706 36.6153 15.5254ZM30.4914 28.3983C30.9214 28.1463 31.4721 28.2942 31.7215 28.7285C31.8006 28.8663 31.9142 28.9807 32.0508 29.0602C32.1874 29.1397 32.3423 29.1815 32.5 29.1815C32.6577 29.1815 32.8126 29.1397 32.9492 29.0602C33.0858 28.9807 33.1994 28.8663 33.2785 28.7285C33.5279 28.2942 34.0786 28.1463 34.5086 28.3983C34.9385 28.6502 35.0849 29.2066 34.8355 29.641C34.5982 30.0543 34.2575 30.3974 33.8476 30.636C33.4377 30.8745 32.973 31 32.5 31C32.027 31 31.5623 30.8745 31.1524 30.636C30.7425 30.3974 30.4019 30.0543 30.1645 29.641C29.9151 29.2066 30.0615 28.6502 30.4914 28.3983Z" fill="#0980D0"/>
<path d="M36.9547 12.8642L37.3101 12.5124L37.3101 12.5124L36.9547 12.8642ZM40.04 23.4076L40.48 23.17L40.48 23.17L40.04 23.4076ZM40.8314 24.5389L40.4667 24.8809L40.4667 24.8809L40.8314 24.5389ZM41.0601 24.7587L41.3821 24.3762L41.3821 24.3762L41.0601 24.7587ZM41.107 24.7965L40.8065 25.1961L40.8081 25.1973L41.107 24.7965ZM41.1096 24.7984L40.8107 25.1992L40.8175 25.2043L40.8245 25.2092L41.1096 24.7984ZM41.4613 25.8113L40.9824 25.6677L40.9824 25.6677L41.4613 25.8113ZM23.5387 25.8113L24.0176 25.6677L24.0176 25.6677L23.5387 25.8113ZM23.8904 24.7984L24.1755 25.2092L24.1825 25.2043L24.1894 25.1992L23.8904 24.7984ZM23.893 24.7965L24.1919 25.1973L24.1935 25.1961L23.893 24.7965ZM23.9399 24.7587L23.6179 24.3762L23.6179 24.3762L23.9399 24.7587ZM24.1686 24.5389L23.8039 24.1969L23.8039 24.1969L24.1686 24.5389ZM24.96 23.4076L24.52 23.17L24.52 23.17L24.96 23.4076ZM37.3288 16.7146L36.9 16.9719L37.3584 17.7358L37.7717 16.9466L37.3288 16.7146ZM37.0541 16.2569L37.0586 15.7569L36.1663 15.749L36.6254 16.5142L37.0541 16.2569ZM36.6153 15.5254L36.1865 15.7827L37.0733 15.3249L36.6153 15.5254ZM36.0177 14.5294L36.41 14.2195L35.5889 14.7867L36.0177 14.5294ZM31.7215 28.7285L32.1551 28.4795L32.1551 28.4795L31.7215 28.7285ZM30.4914 28.3983L30.7442 28.8296L30.7442 28.8296L30.4914 28.3983ZM32.0508 29.0602L31.7993 29.4923L31.7993 29.4923L32.0508 29.0602ZM33.2785 28.7285L32.8449 28.4795L32.8449 28.4795L33.2785 28.7285ZM34.8355 29.641L34.4019 29.392L34.4019 29.392L34.8355 29.641ZM33.8476 30.636L34.0991 31.0681L34.0991 31.0681L33.8476 30.636ZM31.1524 30.636L30.9009 31.0681L30.9009 31.0681L31.1524 30.636ZM30.1645 29.641L30.5981 29.392L30.5981 29.392L30.1645 29.641ZM32.5 10.5C30.6949 10.5 28.9647 11.2245 27.6899 12.5124L28.4006 13.2159C29.4887 12.1166 30.9634 11.5 32.5 11.5V10.5ZM37.3101 12.5124C36.0353 11.2245 34.3051 10.5 32.5 10.5V11.5C34.0366 11.5 35.5113 12.1166 36.5994 13.2159L37.3101 12.5124ZM39.3 17.3647C39.3 15.5457 38.5848 13.8002 37.3101 12.5124L36.5994 13.2159C37.6877 14.3154 38.3 15.8076 38.3 17.3647H39.3ZM40.48 23.17C39.9292 22.1499 39.3 20.3402 39.3 17.3647H38.3C38.3 20.4859 38.9614 22.4622 39.6001 23.6451L40.48 23.17ZM41.1961 24.1969C41.0224 24.0116 40.7573 23.6836 40.48 23.17L39.6001 23.6451C39.92 24.2377 40.2365 24.6354 40.4667 24.8809L41.1961 24.1969ZM41.3821 24.3762C41.3486 24.348 41.2834 24.2899 41.1961 24.1969L40.4667 24.8809C40.5819 25.0038 40.6758 25.0888 40.7381 25.1412L41.3821 24.3762ZM41.4076 24.3969C41.4078 24.397 41.3989 24.3904 41.3821 24.3762L40.7381 25.1412C40.7692 25.1675 40.7925 25.1855 40.8065 25.1961L41.4076 24.3969ZM41.4085 24.3976L41.4059 24.3957L40.8081 25.1973L40.8107 25.1992L41.4085 24.3976ZM41.9403 25.9548C42.1156 25.3697 41.8964 24.7358 41.3947 24.3876L40.8245 25.2092C40.9681 25.3088 41.0344 25.4941 40.9824 25.6677L41.9403 25.9548ZM40.5999 26.957C41.2203 26.957 41.7628 26.5471 41.9403 25.9548L40.9824 25.6677C40.93 25.8424 40.7728 25.957 40.5999 25.957V26.957ZM24.4001 26.957H40.5999V25.957H24.4001V26.957ZM23.0597 25.9548C23.2372 26.5471 23.7797 26.957 24.4001 26.957V25.957C24.2272 25.957 24.07 25.8424 24.0176 25.6677L23.0597 25.9548ZM23.6053 24.3876C23.1036 24.7358 22.8844 25.3697 23.0597 25.9548L24.0176 25.6677C23.9656 25.4941 24.0319 25.3088 24.1755 25.2092L23.6053 24.3876ZM23.594 24.3957L23.5914 24.3977L24.1894 25.1992L24.1919 25.1972L23.594 24.3957ZM23.6179 24.3762C23.6011 24.3904 23.5922 24.397 23.5924 24.3969L24.1935 25.1961C24.2076 25.1855 24.2308 25.1674 24.2619 25.1412L23.6179 24.3762ZM23.8039 24.1969C23.7166 24.2899 23.6514 24.348 23.6179 24.3762L24.2619 25.1412C24.3242 25.0888 24.4181 25.0038 24.5333 24.8809L23.8039 24.1969ZM24.52 23.17C24.2427 23.6836 23.9776 24.0116 23.8039 24.1969L24.5333 24.8809C24.7635 24.6354 25.08 24.2377 25.3999 23.6451L24.52 23.17ZM25.7 17.3647C25.7 20.3402 25.0708 22.1499 24.52 23.17L25.3999 23.6451C26.0386 22.4622 26.7 20.4859 26.7 17.3647H25.7ZM27.6899 12.5124C26.4152 13.8002 25.7 15.5457 25.7 17.3647H26.7C26.7 15.8076 27.3123 14.3154 28.4006 13.2159L27.6899 12.5124ZM37.7575 16.4574L37.4829 15.9997L36.6254 16.5142L36.9 16.9719L37.7575 16.4574ZM37.7717 16.9466C37.8318 16.8318 37.8872 16.6988 37.9062 16.5568C37.9265 16.4045 37.9069 16.2143 37.7787 16.047C37.6592 15.8909 37.4983 15.8252 37.3861 15.7954C37.2723 15.7652 37.156 15.7578 37.0586 15.7569L37.0497 16.7569C37.1111 16.7574 37.1323 16.7627 37.1294 16.7619C37.1281 16.7616 37.0516 16.7422 36.9848 16.6549C36.9093 16.5564 36.9106 16.4574 36.915 16.4245C36.918 16.4018 36.9206 16.4163 36.8858 16.4826L37.7717 16.9466ZM37.044 15.2682L36.4464 14.2722L35.5889 14.7867L36.1865 15.7827L37.044 15.2682ZM35.6253 14.8393C35.8404 15.1118 36.0189 15.41 36.1572 15.726L37.0733 15.3249C36.9009 14.9313 36.6785 14.5595 36.41 14.2195L35.6253 14.8393ZM32.1551 28.4795C31.7686 27.8063 30.9104 27.5732 30.2386 27.9669L30.7442 28.8296C30.9324 28.7194 31.1757 28.782 31.2879 28.9775L32.1551 28.4795ZM32.3023 28.628C32.2418 28.5928 32.1909 28.5418 32.1551 28.4795L31.2879 28.9775C31.4104 29.1908 31.5866 29.3685 31.7993 29.4923L32.3023 28.628ZM32.5 28.6815C32.4309 28.6815 32.3628 28.6632 32.3023 28.628L31.7993 29.4923C32.0121 29.6161 32.2538 29.6815 32.5 29.6815V28.6815ZM32.6977 28.628C32.6373 28.6632 32.5691 28.6815 32.5 28.6815V29.6815C32.7463 29.6815 32.9879 29.6161 33.2007 29.4923L32.6977 28.628ZM32.8449 28.4795C32.8092 28.5418 32.7583 28.5928 32.6977 28.628L33.2007 29.4923C33.4134 29.3685 33.5896 29.1908 33.7121 28.9775L32.8449 28.4795ZM34.7614 27.9669C34.0896 27.5732 33.2315 27.8063 32.8449 28.4795L33.7121 28.9775C33.8244 28.782 34.0677 28.7194 34.2558 28.8296L34.7614 27.9669ZM35.2691 29.8899C35.654 29.2197 35.4301 28.3588 34.7614 27.9669L34.2558 28.8296C34.447 28.9417 34.5158 29.1936 34.4019 29.392L35.2691 29.8899ZM34.0991 31.0681C34.5851 30.7853 34.9884 30.3789 35.2691 29.8899L34.4019 29.392C34.2079 29.7298 33.9299 30.0096 33.5961 30.2038L34.0991 31.0681ZM32.5 31.5C33.0616 31.5 33.6131 31.3509 34.0991 31.0681L33.5961 30.2038C33.2624 30.398 32.8844 30.5 32.5 30.5V31.5ZM30.9009 31.0681C31.387 31.3509 31.9384 31.5 32.5 31.5V30.5C32.1156 30.5 31.7376 30.398 31.4039 30.2038L30.9009 31.0681ZM29.7309 29.8899C30.0117 30.3789 30.415 30.7853 30.9009 31.0681L31.4039 30.2038C31.0701 30.0096 30.7921 29.7298 30.5981 29.392L29.7309 29.8899ZM30.2386 27.9669C29.5699 28.3588 29.3461 29.2197 29.7309 29.8899L30.5981 29.392C30.4842 29.1936 30.5531 28.9417 30.7442 28.8296L30.2386 27.9669Z" fill="#0980D0"/>
<path d="M22.1591 45.438H18.9581L18.4081 47H17.0991L19.8381 39.344H21.2901L24.0291 47H22.7091L22.1591 45.438ZM21.8071 44.415L20.5641 40.862L19.3101 44.415H21.8071ZM26.474 38.86V47H25.22V38.86H26.474ZM33.6754 43.821C33.6754 44.0483 33.6607 44.2537 33.6314 44.437H29.0004C29.0371 44.921 29.2167 45.3097 29.5394 45.603C29.8621 45.8963 30.2581 46.043 30.7274 46.043C31.4021 46.043 31.8787 45.7607 32.1574 45.196H33.5104C33.3271 45.7533 32.9934 46.2117 32.5094 46.571C32.0327 46.923 31.4387 47.099 30.7274 47.099C30.1481 47.099 29.6274 46.9707 29.1654 46.714C28.7107 46.45 28.3514 46.0833 28.0874 45.614C27.8307 45.1373 27.7024 44.5873 27.7024 43.964C27.7024 43.3407 27.8271 42.7943 28.0764 42.325C28.3331 41.8483 28.6887 41.4817 29.1434 41.225C29.6054 40.9683 30.1334 40.84 30.7274 40.84C31.2994 40.84 31.8091 40.9647 32.2564 41.214C32.7037 41.4633 33.0521 41.8153 33.3014 42.27C33.5507 42.7173 33.6754 43.2343 33.6754 43.821ZM32.3664 43.425C32.3591 42.963 32.1941 42.5927 31.8714 42.314C31.5487 42.0353 31.1491 41.896 30.6724 41.896C30.2397 41.896 29.8694 42.0353 29.5614 42.314C29.2534 42.5853 29.0701 42.9557 29.0114 43.425H32.3664ZM36.1635 41.819C36.3468 41.511 36.5888 41.2727 36.8895 41.104C37.1975 40.928 37.5605 40.84 37.9785 40.84V42.138H37.6595C37.1681 42.138 36.7941 42.2627 36.5375 42.512C36.2881 42.7613 36.1635 43.194 36.1635 43.81V47H34.9095V40.939H36.1635V41.819ZM40.5942 41.962V45.317C40.5942 45.5443 40.6455 45.7093 40.7482 45.812C40.8582 45.9073 41.0415 45.955 41.2982 45.955H42.0682V47H41.0782C40.5135 47 40.0808 46.868 39.7802 46.604C39.4795 46.34 39.3292 45.911 39.3292 45.317V41.962H38.6142V40.939H39.3292V39.432H40.5942V40.939H42.0682V41.962H40.5942ZM45.4239 47.099C44.9473 47.099 44.5183 47.0147 44.1369 46.846C43.7629 46.67 43.4659 46.4353 43.2459 46.142C43.0259 45.8413 42.9086 45.5077 42.8939 45.141H44.1919C44.2139 45.3977 44.3349 45.614 44.5549 45.79C44.7823 45.9587 45.0646 46.043 45.4019 46.043C45.7539 46.043 46.0253 45.977 46.2159 45.845C46.4139 45.7057 46.5129 45.5297 46.5129 45.317C46.5129 45.0897 46.4029 44.921 46.1829 44.811C45.9703 44.701 45.6293 44.58 45.1599 44.448C44.7053 44.3233 44.3349 44.2023 44.0489 44.085C43.7629 43.9677 43.5136 43.788 43.3009 43.546C43.0956 43.304 42.9929 42.985 42.9929 42.589C42.9929 42.2663 43.0883 41.973 43.2789 41.709C43.4696 41.4377 43.7409 41.225 44.0929 41.071C44.4523 40.917 44.8629 40.84 45.3249 40.84C46.0143 40.84 46.5679 41.016 46.9859 41.368C47.4113 41.7127 47.6386 42.1857 47.6679 42.787H46.4139C46.3919 42.5157 46.2819 42.2993 46.0839 42.138C45.8859 41.9767 45.6183 41.896 45.2809 41.896C44.9509 41.896 44.6979 41.9583 44.5219 42.083C44.3459 42.2077 44.2579 42.3727 44.2579 42.578C44.2579 42.7393 44.3166 42.875 44.4339 42.985C44.5513 43.095 44.6943 43.183 44.8629 43.249C45.0316 43.3077 45.2809 43.3847 45.6109 43.48C46.0509 43.5973 46.4103 43.7183 46.6889 43.843C46.9749 43.9603 47.2206 44.1363 47.4259 44.371C47.6313 44.6057 47.7376 44.9173 47.7449 45.306C47.7449 45.6507 47.6496 45.9587 47.4589 46.23C47.2683 46.5013 46.9969 46.714 46.6449 46.868C46.3003 47.022 45.8933 47.099 45.4239 47.099Z" fill="#0980D0"/>
</svg>
