<svg width="63" height="52" viewBox="0 0 63 52" fill="none" xmlns="http://www.w3.org/2000/svg">
<path fill-rule="evenodd" clip-rule="evenodd" d="M31.5 11C29.8291 11 28.2267 11.6706 27.0453 12.8642C25.8638 14.0578 25.2 15.6766 25.2 17.3647C25.2 20.413 24.5547 22.306 23.96 23.4076C23.6613 23.9607 23.3706 24.3235 23.1686 24.5389C23.0674 24.6468 22.9878 24.7184 22.9399 24.7587C22.916 24.7789 22.8999 24.7913 22.893 24.7965L22.8904 24.7984C22.5678 25.0223 22.425 25.4319 22.5387 25.8113C22.6536 26.1948 23.0035 26.457 23.4001 26.457H39.5999C39.9965 26.457 40.3464 26.1948 40.4613 25.8113C40.575 25.4319 40.4322 25.0223 40.1096 24.7984L40.107 24.7965C40.1001 24.7913 40.084 24.7789 40.0601 24.7587C40.0122 24.7184 39.9326 24.6468 39.8314 24.5389C39.6294 24.3235 39.3387 23.9607 39.04 23.4076C38.4453 22.306 37.8 20.413 37.8 17.3647C37.8 15.6766 37.1362 14.0578 35.9547 12.8642C34.7733 11.6706 33.1708 11 31.5 11ZM37.4598 24.2784C37.5283 24.4052 37.5971 24.5252 37.6656 24.6386H25.3344C25.4029 24.5252 25.4717 24.4052 25.5402 24.2784C26.2954 22.8795 27 20.681 27 17.3647C27 16.1589 27.4741 15.0026 28.318 14.15C29.162 13.2974 30.3065 12.8185 31.5 12.8185C32.6935 12.8185 33.838 13.2974 34.682 14.15C35.5259 15.0026 36 16.1589 36 17.3647C36 20.681 36.7046 22.8795 37.4598 24.2784ZM30.7215 28.7285C30.4721 28.2942 29.9214 28.1463 29.4914 28.3983C29.0615 28.6502 28.9151 29.2066 29.1645 29.641C29.4019 30.0543 29.7425 30.3974 30.1524 30.636C30.5623 30.8745 31.027 31 31.5 31C31.973 31 32.4377 30.8745 32.8476 30.636C33.2575 30.3974 33.5982 30.0543 33.8355 29.641C34.0849 29.2066 33.9385 28.6502 33.5086 28.3983C33.0786 28.1463 32.5279 28.2942 32.2785 28.7285C32.1994 28.8663 32.0858 28.9807 31.9492 29.0602C31.8126 29.1397 31.6577 29.1815 31.5 29.1815C31.3423 29.1815 31.1874 29.1397 31.0508 29.0602C30.9142 28.9807 30.8006 28.8663 30.7215 28.7285Z" fill="#9597A7"/>
<path d="M21.1591 45.438H17.9581L17.4081 47H16.0991L18.8381 39.344H20.2901L23.0291 47H21.7091L21.1591 45.438ZM20.8071 44.415L19.5641 40.862L18.3101 44.415H20.8071ZM25.474 38.86V47H24.22V38.86H25.474ZM32.6754 43.821C32.6754 44.0483 32.6607 44.2537 32.6314 44.437H28.0004C28.0371 44.921 28.2167 45.3097 28.5394 45.603C28.8621 45.8963 29.2581 46.043 29.7274 46.043C30.4021 46.043 30.8787 45.7607 31.1574 45.196H32.5104C32.3271 45.7533 31.9934 46.2117 31.5094 46.571C31.0327 46.923 30.4387 47.099 29.7274 47.099C29.1481 47.099 28.6274 46.9707 28.1654 46.714C27.7107 46.45 27.3514 46.0833 27.0874 45.614C26.8307 45.1373 26.7024 44.5873 26.7024 43.964C26.7024 43.3407 26.8271 42.7943 27.0764 42.325C27.3331 41.8483 27.6887 41.4817 28.1434 41.225C28.6054 40.9683 29.1334 40.84 29.7274 40.84C30.2994 40.84 30.8091 40.9647 31.2564 41.214C31.7037 41.4633 32.0521 41.8153 32.3014 42.27C32.5507 42.7173 32.6754 43.2343 32.6754 43.821ZM31.3664 43.425C31.3591 42.963 31.1941 42.5927 30.8714 42.314C30.5487 42.0353 30.1491 41.896 29.6724 41.896C29.2397 41.896 28.8694 42.0353 28.5614 42.314C28.2534 42.5853 28.0701 42.9557 28.0114 43.425H31.3664ZM35.1635 41.819C35.3468 41.511 35.5888 41.2727 35.8895 41.104C36.1975 40.928 36.5605 40.84 36.9785 40.84V42.138H36.6595C36.1681 42.138 35.7941 42.2627 35.5375 42.512C35.2881 42.7613 35.1635 43.194 35.1635 43.81V47H33.9095V40.939H35.1635V41.819ZM39.5942 41.962V45.317C39.5942 45.5443 39.6455 45.7093 39.7482 45.812C39.8582 45.9073 40.0415 45.955 40.2982 45.955H41.0682V47H40.0782C39.5135 47 39.0808 46.868 38.7802 46.604C38.4795 46.34 38.3292 45.911 38.3292 45.317V41.962H37.6142V40.939H38.3292V39.432H39.5942V40.939H41.0682V41.962H39.5942ZM44.4239 47.099C43.9473 47.099 43.5183 47.0147 43.1369 46.846C42.7629 46.67 42.4659 46.4353 42.2459 46.142C42.0259 45.8413 41.9086 45.5077 41.8939 45.141H43.1919C43.2139 45.3977 43.3349 45.614 43.5549 45.79C43.7823 45.9587 44.0646 46.043 44.4019 46.043C44.7539 46.043 45.0253 45.977 45.2159 45.845C45.4139 45.7057 45.5129 45.5297 45.5129 45.317C45.5129 45.0897 45.4029 44.921 45.1829 44.811C44.9703 44.701 44.6293 44.58 44.1599 44.448C43.7053 44.3233 43.3349 44.2023 43.0489 44.085C42.7629 43.9677 42.5136 43.788 42.3009 43.546C42.0956 43.304 41.9929 42.985 41.9929 42.589C41.9929 42.2663 42.0883 41.973 42.2789 41.709C42.4696 41.4377 42.7409 41.225 43.0929 41.071C43.4523 40.917 43.8629 40.84 44.3249 40.84C45.0143 40.84 45.5679 41.016 45.9859 41.368C46.4113 41.7127 46.6386 42.1857 46.6679 42.787H45.4139C45.3919 42.5157 45.2819 42.2993 45.0839 42.138C44.8859 41.9767 44.6183 41.896 44.2809 41.896C43.9509 41.896 43.6979 41.9583 43.5219 42.083C43.3459 42.2077 43.2579 42.3727 43.2579 42.578C43.2579 42.7393 43.3166 42.875 43.4339 42.985C43.5513 43.095 43.6943 43.183 43.8629 43.249C44.0316 43.3077 44.2809 43.3847 44.6109 43.48C45.0509 43.5973 45.4103 43.7183 45.6889 43.843C45.9749 43.9603 46.2206 44.1363 46.4259 44.371C46.6313 44.6057 46.7376 44.9173 46.7449 45.306C46.7449 45.6507 46.6496 45.9587 46.4589 46.23C46.2683 46.5013 45.9969 46.714 45.6449 46.868C45.3003 47.022 44.8933 47.099 44.4239 47.099Z" fill="#9597A7"/>
</svg>
