<svg width="28" height="28" viewBox="0 0 28 28" fill="none" xmlns="http://www.w3.org/2000/svg">
<path d="M17.429 6.05565C17.8701 5.54731 18.2064 4.95685 18.4186 4.31818C18.6308 3.6795 18.7148 3.0052 18.6657 2.33398C17.3116 2.44329 16.0547 3.08013 15.1657 4.10732C14.74 4.59962 14.4174 5.17234 14.217 5.79157C14.0166 6.41079 13.9425 7.06394 13.999 7.71232C14.6595 7.71782 15.3125 7.57126 15.9072 7.28399C16.502 6.99671 17.0227 6.57642 17.429 6.05565ZM20.369 14.7357C20.3769 13.8417 20.6123 12.9644 21.0533 12.1867C21.4942 11.409 22.126 10.7565 22.889 10.2907C22.4075 9.59676 21.7708 9.02462 21.0297 8.6196C20.2885 8.21459 19.4631 7.98783 18.619 7.95732C16.799 7.77065 15.119 9.01898 14.1507 9.01898C13.1824 9.01898 11.8174 7.98065 10.3007 8.00398C9.30919 8.03665 8.34307 8.32573 7.49656 8.84304C6.65006 9.36034 5.95208 10.0882 5.47071 10.9557C3.41738 14.5257 4.94571 19.834 6.99904 22.7156C7.93238 24.1273 9.09904 25.7257 10.639 25.6673C12.179 25.609 12.6807 24.7107 14.4657 24.7107C16.2507 24.7107 16.799 25.6673 18.3157 25.6323C19.8324 25.5973 20.9057 24.1857 21.8857 22.774C22.5799 21.7491 23.1222 20.6292 23.4957 19.449C22.5711 19.0547 21.7822 18.3981 21.2266 17.5605C20.6709 16.7229 20.3728 15.7408 20.369 14.7357Z" fill="black"/>
</svg>
