<svg width="22" height="22" viewBox="0 0 22 22" fill="none" xmlns="http://www.w3.org/2000/svg">
<path fill-rule="evenodd" clip-rule="evenodd" d="M5.04297 0.40979L13.2165 4.12504L6.8763 7.00696V10.5456C8.14109 10.2466 9.53987 10.0834 11.0013 10.0834C13.6441 10.0834 16.0819 10.617 17.8931 11.5226C19.6493 12.4007 21.0846 13.7835 21.0846 15.5834C21.0846 17.3833 19.6493 18.766 17.8931 19.6442C16.0819 20.5497 13.6441 21.0834 11.0013 21.0834C8.35855 21.0834 5.92066 20.5497 4.10954 19.6442C2.35326 18.766 0.917969 17.3833 0.917969 15.5834C0.917969 13.7835 2.35326 12.4007 4.10954 11.5226C4.40465 11.375 4.7164 11.2373 5.04297 11.1102V0.40979ZM5.04297 13.1067C5.00473 13.1251 4.96689 13.1436 4.92944 13.1624C3.36804 13.9431 2.7513 14.852 2.7513 15.5834C2.7513 16.3148 3.36804 17.2237 4.92944 18.0044C6.436 18.7577 8.58145 19.25 11.0013 19.25C13.4212 19.25 15.5666 18.7577 17.0732 18.0044C18.6346 17.2237 19.2513 16.3148 19.2513 15.5834C19.2513 14.852 18.6346 13.9431 17.0732 13.1624C15.5666 12.4091 13.4212 11.9167 11.0013 11.9167C9.48959 11.9167 8.08497 12.1089 6.8763 12.4367V15.5834C6.8763 16.0896 6.4659 16.5 5.95964 16.5C5.45337 16.5 5.04297 16.0896 5.04297 15.5834V13.1067ZM6.8763 4.99312L8.78608 4.12504L6.8763 3.25696V4.99312ZM12.8346 15.5834C12.8346 14.5709 13.6554 13.75 14.668 13.75C15.6805 13.75 16.5013 14.5709 16.5013 15.5834C16.5013 16.5959 15.6805 17.4167 14.668 17.4167C13.6554 17.4167 12.8346 16.5959 12.8346 15.5834Z" fill="#828397"/>
</svg>
