<svg width="24" height="24" viewBox="0 0 24 24" fill="none" xmlns="http://www.w3.org/2000/svg">
<g clip-path="url(#clip0_8686_72003)">
<path d="M15.9995 8.00372C15.8119 7.81625 15.5576 7.71094 15.2925 7.71094C15.0273 7.71094 14.773 7.81625 14.5855 8.00372L11.9995 10.5897L9.41346 8.00372C9.22486 7.82157 8.97226 7.72077 8.71006 7.72305C8.44786 7.72533 8.19705 7.8305 8.01164 8.01591C7.82623 8.20131 7.72107 8.45213 7.71879 8.71432C7.71651 8.97652 7.8173 9.22912 7.99946 9.41772L10.5855 12.0037L7.99946 14.5897C7.8173 14.7783 7.71651 15.0309 7.71879 15.2931C7.72107 15.5553 7.82623 15.8061 8.01164 15.9915C8.19705 16.177 8.44786 16.2821 8.71006 16.2844C8.97226 16.2867 9.22486 16.1859 9.41346 16.0037L11.9995 13.4177L14.5855 16.0037C14.7741 16.1859 15.0267 16.2867 15.2889 16.2844C15.5511 16.2821 15.8019 16.177 15.9873 15.9915C16.1727 15.8061 16.2779 15.5553 16.2801 15.2931C16.2824 15.0309 16.1816 14.7783 15.9995 14.5897L13.4135 12.0037L15.9995 9.41772C16.1869 9.2302 16.2922 8.97589 16.2922 8.71072C16.2922 8.44556 16.1869 8.19125 15.9995 8.00372Z" fill="#0A1932"/>
<path d="M12 0C9.62663 0 7.30655 0.703788 5.33316 2.02236C3.35977 3.34094 1.8217 5.21509 0.913451 7.4078C0.00519943 9.60051 -0.232441 12.0133 0.230582 14.3411C0.693605 16.6689 1.83649 18.8071 3.51472 20.4853C5.19295 22.1635 7.33115 23.3064 9.65892 23.7694C11.9867 24.2324 14.3995 23.9948 16.5922 23.0866C18.7849 22.1783 20.6591 20.6402 21.9776 18.6668C23.2962 16.6935 24 14.3734 24 12C23.9966 8.81846 22.7312 5.76821 20.4815 3.51852C18.2318 1.26883 15.1815 0.00344108 12 0ZM12 22C10.0222 22 8.08879 21.4135 6.4443 20.3147C4.79981 19.2159 3.51809 17.6541 2.76121 15.8268C2.00433 13.9996 1.8063 11.9889 2.19215 10.0491C2.578 8.10929 3.53041 6.32746 4.92894 4.92893C6.32746 3.53041 8.10929 2.578 10.0491 2.19215C11.9889 1.8063 13.9996 2.00433 15.8268 2.7612C17.6541 3.51808 19.2159 4.79981 20.3147 6.4443C21.4135 8.08879 22 10.0222 22 12C21.9971 14.6513 20.9426 17.1931 19.0679 19.0679C17.1931 20.9426 14.6513 21.9971 12 22Z" fill="#0A1932"/>
</g>
<defs>
<clipPath id="clip0_8686_72003">
<rect width="24" height="24" fill="white"/>
</clipPath>
</defs>
</svg>
