<svg width="20" height="20" viewBox="0 0 20 20" fill="none" xmlns="http://www.w3.org/2000/svg">
<path d="M1.66797 10C1.66797 6.85754 1.66797 5.28587 2.64464 4.31004C3.62047 3.33337 5.19214 3.33337 8.33464 3.33337H11.668C14.8105 3.33337 16.3821 3.33337 17.358 4.31004C18.3346 5.28587 18.3346 6.85754 18.3346 10V11.6667C18.3346 14.8092 18.3346 16.3809 17.358 17.3567C16.3821 18.3334 14.8105 18.3334 11.668 18.3334H8.33464C5.19214 18.3334 3.62047 18.3334 2.64464 17.3567C1.66797 16.3809 1.66797 14.8092 1.66797 11.6667V10Z" stroke="#0D0423" stroke-width="1.375"/>
<path d="M5.83594 3.33337V2.08337M14.1693 3.33337V2.08337M2.08594 7.50004H17.9193" stroke="#0D0423" stroke-width="1.375" stroke-linecap="round"/>
<path d="M6.91997 11.1334V10.2304H8.60697V15.3334H7.59897V11.1334H6.91997ZM9.8831 14.2274C10.3311 13.854 10.6881 13.5437 10.9541 13.2964C11.2201 13.0444 11.4418 12.783 11.6191 12.5124C11.7964 12.2417 11.8851 11.9757 11.8851 11.7144C11.8851 11.4764 11.8291 11.2897 11.7171 11.1544C11.6051 11.019 11.4324 10.9514 11.1991 10.9514C10.9658 10.9514 10.7861 11.0307 10.6601 11.1894C10.5341 11.3434 10.4688 11.5557 10.4641 11.8264H9.5121C9.53077 11.2664 9.69643 10.8417 10.0091 10.5524C10.3264 10.263 10.7278 10.1184 11.2131 10.1184C11.7451 10.1184 12.1534 10.2607 12.4381 10.5454C12.7228 10.8254 12.8651 11.1964 12.8651 11.6584C12.8651 12.0224 12.7671 12.37 12.5711 12.7014C12.3751 13.0327 12.1511 13.322 11.8991 13.5694C11.6471 13.812 11.3181 14.106 10.9121 14.4514H12.9771V15.2634H9.5191V14.5354L9.8831 14.2274Z" fill="#0D0423"/>
</svg>
