<svg width="14" height="14" viewBox="0 0 14 14" fill="none" xmlns="http://www.w3.org/2000/svg">
<g clip-path="url(#clip0_13818_111420)">
<path d="M1.16602 7.00004C1.16602 4.80029 1.16602 3.70012 1.84968 3.01704C2.53277 2.33337 3.63293 2.33337 5.83268 2.33337H8.16602C10.3658 2.33337 11.4659 2.33337 12.149 3.01704C12.8327 3.70012 12.8327 4.80029 12.8327 7.00004V8.16671C12.8327 10.3665 12.8327 11.4666 12.149 12.1497C11.4659 12.8334 10.3658 12.8334 8.16602 12.8334H5.83268C3.63293 12.8334 2.53277 12.8334 1.84968 12.1497C1.16602 11.4666 1.16602 10.3665 1.16602 8.16671V7.00004Z" stroke="white" stroke-width="1.375"/>
<path d="M4.08203 2.33337V1.45837M9.91537 2.33337V1.45837M1.45703 5.25004H12.5404" stroke="white" stroke-width="1.375" stroke-linecap="round"/>
<path d="M4.84602 7.83337V7.18837H6.05102V10.8334H5.33102V7.83337H4.84602ZM6.96254 10.0434C7.28254 9.77671 7.53754 9.55504 7.72754 9.37837C7.91754 9.19837 8.07587 9.01171 8.20254 8.81837C8.32921 8.62504 8.39254 8.43504 8.39254 8.24837C8.39254 8.07837 8.35254 7.94504 8.27254 7.84837C8.19254 7.75171 8.06921 7.70337 7.90254 7.70337C7.73587 7.70337 7.60754 7.76004 7.51754 7.87337C7.42754 7.98337 7.38087 8.13504 7.37754 8.32837H6.69754C6.71087 7.92837 6.82921 7.62504 7.05254 7.41837C7.27921 7.21171 7.56587 7.10837 7.91254 7.10837C8.29254 7.10837 8.58421 7.21004 8.78754 7.41337C8.99087 7.61337 9.09254 7.87837 9.09254 8.20837C9.09254 8.46837 9.02254 8.71671 8.88254 8.95337C8.74254 9.19004 8.58254 9.39671 8.40254 9.57337C8.22254 9.74671 7.98754 9.95671 7.69754 10.2034H9.17254V10.7834H6.70254V10.2634L6.96254 10.0434Z" fill="white"/>
</g>
<defs>
<clipPath id="clip0_13818_111420">
<rect width="14" height="14" fill="white"/>
</clipPath>
</defs>
</svg>
