<svg width="28" height="28" viewBox="0 0 28 28" fill="none" xmlns="http://www.w3.org/2000/svg">
<path opacity="0.8" d="M14.2585 6.97262C15.917 6.9448 17.5196 7.57191 18.7187 8.71795L22.0647 5.37195C19.9531 3.38836 17.1555 2.2992 14.2585 2.33279C12.0954 2.33189 9.97466 2.93263 8.13336 4.06786C6.29207 5.20309 4.8028 6.82806 3.83203 8.76112L7.72986 11.7828C8.17814 10.3988 9.04919 9.19032 10.2204 8.32742C11.3916 7.46451 12.8039 6.99068 14.2585 6.97262Z" fill="black"/>
<path d="M3.83212 8.76172C3.01651 10.3875 2.5918 12.1812 2.5918 14.0001C2.5918 15.8189 3.01651 17.6126 3.83212 19.2384L7.72996 16.2167C7.24217 14.7792 7.24217 13.2209 7.72996 11.7834L3.83212 8.76172Z" fill="black"/>
<path opacity="0.6" d="M18.2097 19.9128C17.3077 20.4918 16.2853 20.8572 15.2207 20.981C14.156 21.1048 13.0771 20.9839 12.0663 20.6273C11.0555 20.2708 10.1395 19.6882 9.38809 18.9238C8.6367 18.1594 8.06981 17.2336 7.73065 16.2168L3.83398 19.2385C4.80457 21.1712 6.29348 22.7959 8.13432 23.9311C9.97517 25.0663 12.0954 25.6673 14.2582 25.6668C17.0982 25.7437 19.8602 24.7325 21.9792 22.84L18.2097 19.9128Z" fill="black"/>
<path opacity="0.45" d="M25.2474 11.8789H14.2598V16.3916H20.5388C20.4088 17.1054 20.1354 17.7855 19.7352 18.3907C19.3349 18.9958 18.8161 19.5136 18.2101 19.9126L21.9808 22.8409C23.129 21.7351 24.032 20.4003 24.6314 18.923C25.2307 17.4458 25.5129 15.8592 25.4598 14.2659C25.4598 13.4644 25.3898 12.6664 25.2474 11.8789Z" fill="black"/>
</svg>
