<svg width="22" height="22" viewBox="0 0 22 22" fill="none" xmlns="http://www.w3.org/2000/svg">
<path fill-rule="evenodd" clip-rule="evenodd" d="M11.0007 3.49998C6.85851 3.49998 3.50065 6.85784 3.50065 11C3.50065 15.1421 6.85851 18.5 11.0007 18.5C15.1428 18.5 18.5006 15.1421 18.5006 11C18.5006 6.85784 15.1428 3.49998 11.0007 3.49998ZM1.83398 11C1.83398 5.93737 5.93804 1.83331 11.0007 1.83331C16.0633 1.83331 20.1673 5.93737 20.1673 11C20.1673 16.0626 16.0633 20.1666 11.0007 20.1666C5.93804 20.1666 1.83398 16.0626 1.83398 11ZM11.2157 7.6869C10.8278 7.62036 10.4288 7.69326 10.0895 7.89269C9.75018 8.09212 9.49237 8.40521 9.36176 8.77651C9.20903 9.21067 8.73327 9.43881 8.29911 9.28608C7.86495 9.13336 7.63681 8.65759 7.78953 8.22344C8.05076 7.48085 8.56637 6.85467 9.24504 6.45581C9.92371 6.05695 10.7216 5.91115 11.4975 6.04423C12.2734 6.17731 12.9771 6.58069 13.4841 7.18291C13.9909 7.78502 14.2684 8.54704 14.2673 9.33407C14.2669 10.6094 13.3214 11.4515 12.6462 11.9017C12.2832 12.1437 11.9261 12.3217 11.6631 12.4386C11.5303 12.4975 11.4186 12.5423 11.3381 12.573C11.2977 12.5883 11.265 12.6003 11.2412 12.6087L11.2123 12.6189L11.2031 12.622L11.1998 12.6231L11.1985 12.6235C11.1983 12.6236 11.1975 12.6239 10.934 11.8333L11.1975 12.6239C10.7609 12.7694 10.2889 12.5334 10.1434 12.0968C9.99797 11.6605 10.2335 11.1889 10.6696 11.043L10.6829 11.0384C10.6957 11.0338 10.7167 11.0262 10.7447 11.0155C10.8009 10.9941 10.8845 10.9607 10.9862 10.9155C11.1919 10.8241 11.4598 10.6896 11.7217 10.5149C12.2964 10.1318 12.6006 9.72425 12.6006 9.33331L12.6006 9.33206C12.6012 8.93847 12.4625 8.55736 12.209 8.25625C11.9555 7.95513 11.6037 7.75345 11.2157 7.6869ZM11.0007 14.3333C10.5404 14.3333 10.1673 14.7064 10.1673 15.1666C10.1673 15.6269 10.5404 16 11.0007 16H11.009C11.4692 16 11.8423 15.6269 11.8423 15.1666C11.8423 14.7064 11.4692 14.3333 11.009 14.3333H11.0007Z" fill="#828397"/>
</svg>
