<svg width="28" height="28" viewBox="0 0 28 28" fill="none" xmlns="http://www.w3.org/2000/svg">
<path d="M20.1986 2.33398H7.80273C4.78243 2.33398 2.33398 4.78243 2.33398 7.80273V20.1986C2.33398 23.2189 4.78243 25.6673 7.80273 25.6673H20.1986C23.2189 25.6673 25.6673 23.2189 25.6673 20.1986V7.80273C25.6673 4.78243 23.2189 2.33398 20.1986 2.33398Z" fill="#FFDD55"/>
<path d="M20.1986 2.33398H7.80273C4.78243 2.33398 2.33398 4.78243 2.33398 7.80273V20.1986C2.33398 23.2189 4.78243 25.6673 7.80273 25.6673H20.1986C23.2189 25.6673 25.6673 23.2189 25.6673 20.1986V7.80273C25.6673 4.78243 23.2189 2.33398 20.1986 2.33398Z" fill="black"/>
<path d="M14.0021 4.88672C11.5268 4.88672 11.2161 4.89757 10.2439 4.94177C9.27357 4.98625 8.61121 5.13983 8.03171 5.36523C7.43215 5.59802 6.92365 5.90947 6.41706 6.41624C5.91001 6.92292 5.59857 7.43142 5.36505 8.0307C5.13901 8.61039 4.98525 9.27302 4.94159 10.2429C4.89811 11.2152 4.88672 11.526 4.88672 14.0014C4.88672 16.4768 4.89766 16.7865 4.94177 17.7587C4.98643 18.729 5.14001 19.3914 5.36523 19.9709C5.5982 20.5705 5.90965 21.079 6.41642 21.5855C6.92292 22.0926 7.43142 22.4048 8.03052 22.6376C8.61048 22.863 9.27293 23.0165 10.2431 23.061C11.2153 23.1052 11.5258 23.1161 14.001 23.1161C16.4766 23.1161 16.7864 23.1052 17.7585 23.061C18.7289 23.0165 19.3919 22.863 19.9719 22.6376C20.5712 22.4048 21.079 22.0926 21.5854 21.5855C22.0924 21.079 22.4038 20.5705 22.6374 19.9712C22.8614 19.3914 23.0153 18.7289 23.0608 17.7589C23.1045 16.7867 23.1159 16.4768 23.1159 14.0014C23.1159 11.526 23.1045 11.2153 23.0608 10.2431C23.0153 9.27275 22.8614 8.61048 22.6374 8.03098C22.4038 7.43142 22.0924 6.92292 21.5854 6.41624C21.0784 5.90928 20.5714 5.59784 19.9714 5.36533C19.3903 5.13983 18.7276 4.98616 17.7572 4.94177C16.785 4.89757 16.4755 4.88672 13.9993 4.88672H14.0021ZM13.1845 6.52926C13.4272 6.52889 13.698 6.52926 14.0021 6.52926C16.4358 6.52926 16.7242 6.53801 17.6852 6.58167C18.5739 6.62232 19.0562 6.77079 19.3775 6.89557C19.8029 7.06073 20.1062 7.25824 20.425 7.57734C20.744 7.89635 20.9414 8.20014 21.107 8.62552C21.2318 8.94635 21.3805 9.4287 21.4209 10.3174C21.4646 11.2782 21.4741 11.5668 21.4741 13.9993C21.4741 16.4318 21.4646 16.7205 21.4209 17.6812C21.3803 18.5699 21.2318 19.0522 21.107 19.3732C20.9419 19.7985 20.744 20.1014 20.425 20.4202C20.106 20.7393 19.8031 20.9367 19.3775 21.1019C19.0566 21.2273 18.5739 21.3754 17.6852 21.416C16.7244 21.4597 16.4358 21.4692 14.0021 21.4692C11.5683 21.4692 11.2799 21.4597 10.3191 21.416C9.43043 21.375 8.94809 21.2265 8.62652 21.1017C8.20124 20.9365 7.89736 20.7391 7.57835 20.4201C7.25934 20.1011 7.06191 19.798 6.8963 19.3724C6.77152 19.0515 6.62286 18.5692 6.5824 17.6805C6.53874 16.7196 6.52999 16.4311 6.52999 13.997C6.52999 11.5631 6.53874 11.2759 6.5824 10.3151C6.62305 9.42642 6.77152 8.94408 6.8963 8.62279C7.06155 8.19741 7.25934 7.89362 7.57844 7.57461C7.89745 7.2556 8.20124 7.05809 8.62661 6.89257C8.9479 6.76724 9.43043 6.61913 10.3191 6.57829C11.1599 6.54029 11.4858 6.52889 13.1845 6.52698V6.52926ZM18.8675 8.04264C18.2636 8.04264 17.7737 8.5321 17.7737 9.13603C17.7737 9.73987 18.2636 10.2298 18.8675 10.2298C19.4713 10.2298 19.9612 9.73987 19.9612 9.13603C19.9612 8.53219 19.4713 8.04228 18.8675 8.04228V8.04264ZM14.0021 9.3206C11.4172 9.3206 9.32142 11.4164 9.32142 14.0014C9.32142 16.5864 11.4172 18.6812 14.0021 18.6812C16.5871 18.6812 18.6822 16.5864 18.6822 14.0014C18.6822 11.4165 16.5869 9.3206 14.0019 9.3206H14.0021ZM14.0021 10.9631C15.68 10.9631 17.0404 12.3233 17.0404 14.0014C17.0404 15.6793 15.68 17.0396 14.0021 17.0396C12.3241 17.0396 10.964 15.6793 10.964 14.0014C10.964 12.3233 12.3241 10.9631 14.0021 10.9631Z" fill="white"/>
</svg>
