<svg width="20" height="20" viewBox="0 0 20 20" fill="none" xmlns="http://www.w3.org/2000/svg">
<path fill-rule="evenodd" clip-rule="evenodd" d="M5.75736 4.15099C6.88258 3.00494 8.4087 2.36109 10 2.36109C11.5913 2.36109 13.1174 3.00494 14.2426 4.15099C15.3679 5.29705 16 6.85143 16 8.4722C16 10.8388 14.4882 13.1352 12.8305 14.9173C12.017 15.7919 11.201 16.5079 10.5875 17.0055C10.3592 17.1907 10.1597 17.3449 10 17.4651C9.84027 17.3449 9.64084 17.1907 9.41251 17.0055C8.799 16.5079 7.98296 15.7919 7.16946 14.9173C5.5118 13.1352 4 10.8388 4 8.4722C4 6.85143 4.63214 5.29705 5.75736 4.15099ZM9.58357 19.0381C9.58378 19.0382 9.58398 19.0384 10 18.4028L9.58398 19.0384C9.8359 19.2094 10.1641 19.2094 10.416 19.0384L10 18.4028C10.416 19.0384 10.4162 19.0382 10.4164 19.0381L10.417 19.0377L10.4186 19.0366L10.4236 19.0332L10.4408 19.0214C10.4554 19.0113 10.4762 18.9967 10.5028 18.978C10.5561 18.9404 10.6327 18.8856 10.7292 18.8146C10.9221 18.6727 11.1952 18.4656 11.5219 18.2006C12.174 17.6717 13.0455 16.9077 13.9195 15.968C15.6368 14.1217 17.5 11.4529 17.5 8.4722C17.5 6.44624 16.7098 4.50326 15.3033 3.07069C13.8968 1.63812 11.9891 0.833313 10 0.833313C8.01088 0.833313 6.10322 1.63812 4.6967 3.07069C3.29018 4.50326 2.5 6.44624 2.5 8.4722C2.5 11.4529 4.3632 14.1217 6.08054 15.968C6.95454 16.9077 7.826 17.6717 8.47812 18.2006C8.80477 18.4656 9.07791 18.6727 9.27084 18.8146C9.36735 18.8856 9.4439 18.9404 9.49717 18.978C9.52381 18.9967 9.54464 19.0113 9.55924 19.0214L9.57643 19.0332L9.58143 19.0366L9.58301 19.0377L9.58357 19.0381ZM8.5 8.4722C8.5 7.62843 9.17157 6.94442 10 6.94442C10.8284 6.94442 11.5 7.62843 11.5 8.4722C11.5 9.31597 10.8284 9.99998 10 9.99998C9.17157 9.99998 8.5 9.31597 8.5 8.4722ZM10 5.41665C8.34315 5.41665 7 6.78466 7 8.4722C7 10.1597 8.34315 11.5278 10 11.5278C11.6569 11.5278 13 10.1597 13 8.4722C13 6.78466 11.6569 5.41665 10 5.41665Z" fill="#0D0423"/>
</svg>
