<svg width="22" height="22" viewBox="0 0 22 22" fill="none" xmlns="http://www.w3.org/2000/svg">
<path fill-rule="evenodd" clip-rule="evenodd" d="M4.58301 11C4.07675 11 3.66634 11.4104 3.66634 11.9167V18.3334C3.66634 18.8396 4.07675 19.25 4.58301 19.25H17.4163C17.9226 19.25 18.333 18.8396 18.333 18.3334V11.9167C18.333 11.4104 17.9226 11 17.4163 11H4.58301ZM1.83301 11.9167C1.83301 10.3979 3.06422 9.16669 4.58301 9.16669H17.4163C18.9351 9.16669 20.1663 10.3979 20.1663 11.9167V18.3334C20.1663 19.8521 18.9351 21.0834 17.4163 21.0834H4.58301C3.06422 21.0834 1.83301 19.8521 1.83301 18.3334V11.9167Z" fill="#9597A7"/>
<path fill-rule="evenodd" clip-rule="evenodd" d="M11 2.75002C10.0275 2.75002 9.09491 3.13633 8.40728 3.82396C7.71964 4.5116 7.33333 5.44423 7.33333 6.41669V10.0834C7.33333 10.5896 6.92293 11 6.41667 11C5.91041 11 5.5 10.5896 5.5 10.0834V6.41669C5.5 4.958 6.07946 3.55905 7.11091 2.5276C8.14236 1.49615 9.54131 0.916687 11 0.916687C12.4587 0.916687 13.8576 1.49615 14.8891 2.5276C15.9205 3.55905 16.5 4.958 16.5 6.41669V10.0834C16.5 10.5896 16.0896 11 15.5833 11C15.0771 11 14.6667 10.5896 14.6667 10.0834V6.41669C14.6667 5.44423 14.2804 4.5116 13.5927 3.82396C12.9051 3.13633 11.9725 2.75002 11 2.75002Z" fill="#9597A7"/>
</svg>
