<svg width="22" height="22" viewBox="0 0 22 22" fill="none" xmlns="http://www.w3.org/2000/svg">
<path fill-rule="evenodd" clip-rule="evenodd" d="M3.66699 4.58333C3.16492 4.58333 2.75033 4.99793 2.75033 5.5V16.5C2.75033 17.0021 3.16492 17.4167 3.66699 17.4167H18.3337C18.8357 17.4167 19.2503 17.0021 19.2503 16.5V5.5C19.2503 4.99793 18.8357 4.58333 18.3337 4.58333H3.66699ZM0.916992 5.5C0.916992 3.98541 2.1524 2.75 3.66699 2.75H18.3337C19.8483 2.75 21.0837 3.98541 21.0837 5.5V16.5C21.0837 18.0146 19.8483 19.25 18.3337 19.25H3.66699C2.1524 19.25 0.916992 18.0146 0.916992 16.5V5.5Z" fill="#9597A7"/>
<path fill-rule="evenodd" clip-rule="evenodd" d="M1.08277 4.97432C1.3731 4.55958 1.94467 4.45871 2.35941 4.74903L11.0004 10.7977L19.6414 4.74903C20.0561 4.45871 20.6277 4.55958 20.918 4.97432C21.2084 5.38907 21.1075 5.96064 20.6927 6.25096L11.5261 12.6676C11.2105 12.8886 10.7904 12.8886 10.4747 12.6676L1.30806 6.25096C0.893319 5.96064 0.792453 5.38907 1.08277 4.97432Z" fill="#9597A7"/>
</svg>
