<svg width="18" height="17" viewBox="0 0 18 17" fill="none" xmlns="http://www.w3.org/2000/svg">
<path d="M1.5 14.125C1.5 13.1304 1.89509 12.1766 2.59835 11.4733C3.30161 10.7701 4.25544 10.375 5.25 10.375H12.75C13.7446 10.375 14.6984 10.7701 15.4016 11.4733C16.1049 12.1766 16.5 13.1304 16.5 14.125C16.5 14.6223 16.3025 15.0992 15.9508 15.4508C15.5992 15.8025 15.1223 16 14.625 16H3.375C2.87772 16 2.40081 15.8025 2.04917 15.4508C1.69754 15.0992 1.5 14.6223 1.5 14.125Z" stroke="#9597A7" stroke-width="1.5" stroke-linejoin="round"/>
<path d="M9 6.625C10.5533 6.625 11.8125 5.3658 11.8125 3.8125C11.8125 2.2592 10.5533 1 9 1C7.4467 1 6.1875 2.2592 6.1875 3.8125C6.1875 5.3658 7.4467 6.625 9 6.625Z" stroke="#9597A7" stroke-width="1.5"/>
</svg>
