<svg width="17" height="18" viewBox="0 0 17 18" fill="none" xmlns="http://www.w3.org/2000/svg">
<path d="M1 14.625C1 13.6304 1.39509 12.6766 2.09835 11.9733C2.80161 11.2701 3.75544 10.875 4.75 10.875H12.25C13.2446 10.875 14.1984 11.2701 14.9016 11.9733C15.6049 12.6766 16 13.6304 16 14.625C16 15.1223 15.8025 15.5992 15.4508 15.9508C15.0992 16.3025 14.6223 16.5 14.125 16.5H2.875C2.37772 16.5 1.90081 16.3025 1.54917 15.9508C1.19754 15.5992 1 15.1223 1 14.625Z" stroke="white" stroke-width="1.5" stroke-linejoin="round"/>
<path d="M8.5 7.125C10.0533 7.125 11.3125 5.8658 11.3125 4.3125C11.3125 2.7592 10.0533 1.5 8.5 1.5C6.9467 1.5 5.6875 2.7592 5.6875 4.3125C5.6875 5.8658 6.9467 7.125 8.5 7.125Z" stroke="white" stroke-width="1.5"/>
</svg>
