<svg width="40" height="40" viewBox="0 0 40 40" fill="none" xmlns="http://www.w3.org/2000/svg">
<path fill-rule="evenodd" clip-rule="evenodd" d="M20 3.33337C17.2152 3.33337 14.5446 4.45097 12.5754 6.44032C10.6063 8.42966 9.50008 11.1278 9.50008 13.9411C9.50008 19.0217 8.42449 22.1768 7.43325 24.0127C6.93557 24.9345 6.45094 25.5392 6.1143 25.8982C5.94559 26.0781 5.81302 26.1974 5.73319 26.2646C5.69326 26.2982 5.66648 26.3188 5.65493 26.3275L5.65065 26.3307C5.11292 26.7039 4.87497 27.3865 5.06448 28.0188C5.25602 28.658 5.83911 29.0951 6.50011 29.0951H33.4999C34.1609 29.0951 34.744 28.658 34.9355 28.0188C35.125 27.3865 34.8871 26.7039 34.3493 26.3307L34.3451 26.3275C34.3335 26.3188 34.3067 26.2982 34.2668 26.2646C34.187 26.1974 34.0544 26.0781 33.8857 25.8982C33.5491 25.5392 33.0644 24.9345 32.5667 24.0127C31.5755 22.1768 30.4999 19.0217 30.4999 13.9411C30.4999 11.1278 29.3937 8.42966 27.4246 6.44032C25.4554 4.45097 22.7848 3.33337 20 3.33337ZM29.9331 25.464C30.0472 25.6754 30.1618 25.8754 30.2759 26.0643H9.72407C9.8382 25.8754 9.95277 25.6754 10.0669 25.464C11.3257 23.1326 12.5001 19.4683 12.5001 13.9411C12.5001 11.9316 13.2902 10.0044 14.6967 8.58341C16.1033 7.16245 18.0109 6.36417 20 6.36417C21.9891 6.36417 23.8967 7.16245 25.3033 8.58341C26.7098 10.0044 27.4999 11.9316 27.4999 13.9411C27.4999 19.4683 28.6743 23.1326 29.9331 25.464ZM18.7025 32.8809C18.2869 32.157 17.369 31.9105 16.6524 32.3305C15.9358 32.7504 15.6919 33.6777 16.1076 34.4017C16.5031 35.0906 17.0709 35.6624 17.754 36.06C18.4372 36.4575 19.2117 36.6667 20 36.6667C20.7884 36.6667 21.5629 36.4575 22.246 36.06C22.9292 35.6624 23.4969 35.0906 23.8925 34.4017C24.3082 33.6777 24.0642 32.7504 23.3477 32.3305C22.6311 31.9105 21.7132 32.157 21.2975 32.8809C21.1657 33.1105 20.9764 33.3012 20.7487 33.4337C20.521 33.5662 20.2628 33.6359 20 33.6359C19.7372 33.6359 19.4791 33.5662 19.2514 33.4337C19.0237 33.3012 18.8344 33.1105 18.7025 32.8809Z" fill="#0D0423"/>
</svg>
