<svg width="24" height="24" viewBox="0 0 24 24" fill="none" xmlns="http://www.w3.org/2000/svg">
<path d="M20.7723 16.5032C19.4602 14.8973 18.5339 14.0798 18.5339 9.65261C18.5339 5.59837 16.4636 4.15397 14.7596 3.45247C14.5333 3.35948 14.3202 3.14591 14.2513 2.91343C13.9524 1.89617 13.1144 1 12.0006 1C10.8868 1 10.0483 1.89668 9.75252 2.91446C9.68354 3.14948 9.47048 3.35948 9.24414 3.45247C7.53814 4.155 5.4699 5.59429 5.4699 9.65261C5.46734 14.0798 4.54103 14.8973 3.22896 16.5032C2.68533 17.1684 3.16151 18.1673 4.11236 18.1673H19.894C20.8397 18.1673 21.3128 17.1653 20.7723 16.5032Z" stroke="#0D0423" stroke-width="2" stroke-linecap="round" stroke-linejoin="round"/>
<path d="M15.2713 18.1672V18.9848C15.2713 19.8522 14.9267 20.6841 14.3134 21.2974C13.7001 21.9107 12.8683 22.2553 12.0009 22.2553C11.1335 22.2553 10.3017 21.9107 9.68835 21.2974C9.07503 20.6841 8.73047 19.8522 8.73047 18.9848V18.1672" stroke="#0D0423" stroke-width="1.5" stroke-linecap="round" stroke-linejoin="round"/>
</svg>
