<svg width="22" height="22" viewBox="0 0 22 22" fill="none" xmlns="http://www.w3.org/2000/svg">
<path fill-rule="evenodd" clip-rule="evenodd" d="M10.5417 3.66665C9.02288 3.66665 7.79167 4.89786 7.79167 6.41665C7.79167 7.93543 9.02288 9.16665 10.5417 9.16665C12.0605 9.16665 13.2917 7.93543 13.2917 6.41665C13.2917 4.89786 12.0605 3.66665 10.5417 3.66665ZM5.95833 6.41665C5.95833 3.88534 8.01036 1.83331 10.5417 1.83331C13.073 1.83331 15.125 3.88534 15.125 6.41665C15.125 8.94795 13.073 11 10.5417 11C8.01036 11 5.95833 8.94795 5.95833 6.41665ZM4.09243 14.1757C4.95197 13.3162 6.11776 12.8333 7.33333 12.8333H13.75C14.9656 12.8333 16.1314 13.3162 16.9909 14.1757C17.8504 15.0353 18.3333 16.2011 18.3333 17.4166V19.25C18.3333 19.7562 17.9229 20.1666 17.4167 20.1666C16.9104 20.1666 16.5 19.7562 16.5 19.25V17.4166C16.5 16.6873 16.2103 15.9878 15.6945 15.4721C15.1788 14.9564 14.4793 14.6666 13.75 14.6666H7.33333C6.60399 14.6666 5.90452 14.9564 5.38879 15.4721C4.87306 15.9878 4.58333 16.6873 4.58333 17.4166V19.25C4.58333 19.7562 4.17293 20.1666 3.66667 20.1666C3.16041 20.1666 2.75 19.7562 2.75 19.25V17.4166C2.75 16.2011 3.23289 15.0353 4.09243 14.1757Z" fill="#828397"/>
</svg>
