<svg width="22" height="22" viewBox="0 0 22 22" fill="none" xmlns="http://www.w3.org/2000/svg">
<g clip-path="url(#clip0_256_5044)">
<path d="M1.67739 1.66824L2.63989 0.834072C3.74905 -0.275094 5.54572 -0.275094 6.65489 0.834072C6.68239 0.861572 8.37822 3.07074 8.37822 3.07074C9.42322 4.17074 9.42322 5.90324 8.37822 6.99407L7.31489 8.33241C8.65322 11.3666 10.7341 13.4566 13.6674 14.7032L15.0057 13.6307C16.0966 12.5766 17.8382 12.5766 18.9291 13.6307C18.9291 13.6307 21.1382 15.3266 21.1657 15.3541C22.2749 16.4632 22.2749 18.2599 21.2116 19.3232L20.2949 20.3774C19.2407 21.4316 17.8199 22.0091 16.2799 22.0091C9.27656 22.0091 -0.000112534 12.7232 -0.000112534 5.72907C-0.000112534 4.19824 0.577387 2.76824 1.67739 1.67741V1.66824ZM16.2799 20.1666C17.3249 20.1666 18.2874 19.7816 18.9474 19.1124L19.8641 18.0582C20.2399 17.6824 20.2582 17.0682 19.9007 16.6741C19.9007 16.6741 17.7099 14.9874 17.6824 14.9599C17.3066 14.5841 16.6466 14.5841 16.2616 14.9599C16.2341 14.9874 14.3916 16.4632 14.3916 16.4632C14.1349 16.6649 13.7957 16.7199 13.4932 16.6007C9.69822 15.1524 6.97572 12.4391 5.40822 8.52491C5.28905 8.22241 5.33489 7.87407 5.54572 7.60824C5.54572 7.60824 7.02155 5.75657 7.03989 5.73824C7.43406 5.34407 7.43406 4.71157 7.03989 4.31741C7.01239 4.28991 5.32572 2.09907 5.32572 2.09907C4.93155 1.74157 4.31739 1.75074 3.89572 2.17241L2.93322 3.00657C2.22739 3.71241 1.83322 4.67491 1.83322 5.71991C1.83322 12.0999 10.7891 20.1666 16.2799 20.1666Z" fill="#9597A7"/>
</g>
<defs>
<clipPath id="clip0_256_5044">
<rect width="22" height="22" fill="white" transform="matrix(-1 0 0 1 22 0)"/>
</clipPath>
</defs>
</svg>
