<svg width="65" height="52" viewBox="0 0 65 52" fill="none" xmlns="http://www.w3.org/2000/svg">
<mask id="path-1-inside-1_15108_68446" fill="white">
<path d="M1.5 0H63.5V52H1.5V0Z"/>
</mask>
<path d="M1.5 1H63.5V-1H1.5V1Z" fill="#0980D0" mask="url(#path-1-inside-1_15108_68446)"/>
<rect width="65" height="1" fill="#0980D0"/>
<path d="M36.316 12.4097C35.474 11.5006 34.298 11 32.9999 11C31.695 11 30.515 11.4976 29.6769 12.401C28.8297 13.3144 28.417 14.5558 28.5139 15.8962C28.706 18.5408 30.7184 20.692 32.9999 20.692C35.2814 20.692 37.2904 18.5412 37.4855 15.8971C37.5837 14.5687 37.1684 13.33 36.316 12.4097Z" fill="#0980D0"/>
<path d="M40.6152 30.3837H25.3848C25.1855 30.3863 24.9881 30.3444 24.8069 30.2611C24.6258 30.1778 24.4655 30.0551 24.3377 29.9021C24.0565 29.5659 23.9431 29.1068 24.0271 28.6426C24.3923 26.6168 25.5319 24.915 27.3232 23.7204C28.9146 22.6599 30.9305 22.0762 33 22.0762C35.0695 22.0762 37.0854 22.6603 38.6768 23.7204C40.4681 24.9146 41.6077 26.6163 41.9729 28.6421C42.0569 29.1064 41.9435 29.5655 41.6623 29.9017C41.5345 30.0548 41.3743 30.1775 41.1931 30.2609C41.012 30.3443 40.8146 30.3862 40.6152 30.3837Z" fill="#0980D0"/>
<path d="M22.1607 41.632C22.1607 42.0207 22.0691 42.3873 21.8857 42.732C21.7024 43.0767 21.4091 43.359 21.0057 43.579C20.6024 43.7917 20.0854 43.898 19.4547 43.898H18.0687V47H16.8147V39.355H19.4547C20.0414 39.355 20.5364 39.4577 20.9397 39.663C21.3504 39.861 21.6547 40.1323 21.8527 40.477C22.0581 40.8217 22.1607 41.2067 22.1607 41.632ZM19.4547 42.875C19.9314 42.875 20.2871 42.7687 20.5217 42.556C20.7564 42.336 20.8737 42.028 20.8737 41.632C20.8737 40.796 20.4007 40.378 19.4547 40.378H18.0687V42.875H19.4547ZM24.6107 41.819C24.7941 41.511 25.0361 41.2727 25.3367 41.104C25.6447 40.928 26.0077 40.84 26.4257 40.84V42.138H26.1067C25.6154 42.138 25.2414 42.2627 24.9847 42.512C24.7354 42.7613 24.6107 43.194 24.6107 43.81V47H23.3567V40.939H24.6107V41.819ZM30.2074 47.099C29.6354 47.099 29.1184 46.9707 28.6564 46.714C28.1944 46.45 27.8314 46.0833 27.5674 45.614C27.3034 45.1373 27.1714 44.5873 27.1714 43.964C27.1714 43.348 27.3071 42.8017 27.5784 42.325C27.8498 41.8483 28.2201 41.4817 28.6894 41.225C29.1588 40.9683 29.6831 40.84 30.2624 40.84C30.8418 40.84 31.3661 40.9683 31.8354 41.225C32.3048 41.4817 32.6751 41.8483 32.9464 42.325C33.2178 42.8017 33.3534 43.348 33.3534 43.964C33.3534 44.58 33.2141 45.1263 32.9354 45.603C32.6568 46.0797 32.2754 46.45 31.7914 46.714C31.3148 46.9707 30.7868 47.099 30.2074 47.099ZM30.2074 46.01C30.5301 46.01 30.8308 45.933 31.1094 45.779C31.3954 45.625 31.6264 45.394 31.8024 45.086C31.9784 44.778 32.0664 44.404 32.0664 43.964C32.0664 43.524 31.9821 43.1537 31.8134 42.853C31.6448 42.545 31.4211 42.314 31.1424 42.16C30.8638 42.006 30.5631 41.929 30.2404 41.929C29.9178 41.929 29.6171 42.006 29.3384 42.16C29.0671 42.314 28.8508 42.545 28.6894 42.853C28.5281 43.1537 28.4474 43.524 28.4474 43.964C28.4474 44.6167 28.6124 45.1227 28.9424 45.482C29.2798 45.834 29.7014 46.01 30.2074 46.01ZM37.1341 41.962H36.0121V47H34.7471V41.962H34.0321V40.939H34.7471V40.51C34.7471 39.8133 34.9304 39.3073 35.2971 38.992C35.6711 38.6693 36.2541 38.508 37.0461 38.508V39.553C36.6647 39.553 36.3971 39.6263 36.2431 39.773C36.0891 39.9123 36.0121 40.158 36.0121 40.51V40.939H37.1341V41.962ZM38.8834 40.136C38.6561 40.136 38.4654 40.059 38.3114 39.905C38.1574 39.751 38.0804 39.5603 38.0804 39.333C38.0804 39.1057 38.1574 38.915 38.3114 38.761C38.4654 38.607 38.6561 38.53 38.8834 38.53C39.1034 38.53 39.2904 38.607 39.4444 38.761C39.5984 38.915 39.6754 39.1057 39.6754 39.333C39.6754 39.5603 39.5984 39.751 39.4444 39.905C39.2904 40.059 39.1034 40.136 38.8834 40.136ZM39.4994 40.939V47H38.2454V40.939H39.4994ZM42.3998 38.86V47H41.1458V38.86H42.3998ZM49.6012 43.821C49.6012 44.0483 49.5865 44.2537 49.5572 44.437H44.9262C44.9629 44.921 45.1425 45.3097 45.4652 45.603C45.7879 45.8963 46.1839 46.043 46.6532 46.043C47.3279 46.043 47.8045 45.7607 48.0832 45.196H49.4362C49.2529 45.7533 48.9192 46.2117 48.4352 46.571C47.9585 46.923 47.3645 47.099 46.6532 47.099C46.0739 47.099 45.5532 46.9707 45.0912 46.714C44.6365 46.45 44.2772 46.0833 44.0132 45.614C43.7565 45.1373 43.6282 44.5873 43.6282 43.964C43.6282 43.3407 43.7529 42.7943 44.0022 42.325C44.2589 41.8483 44.6145 41.4817 45.0692 41.225C45.5312 40.9683 46.0592 40.84 46.6532 40.84C47.2252 40.84 47.7349 40.9647 48.1822 41.214C48.6295 41.4633 48.9779 41.8153 49.2272 42.27C49.4765 42.7173 49.6012 43.2343 49.6012 43.821ZM48.2922 43.425C48.2849 42.963 48.1199 42.5927 47.7972 42.314C47.4745 42.0353 47.0749 41.896 46.5982 41.896C46.1655 41.896 45.7952 42.0353 45.4872 42.314C45.1792 42.5853 44.9959 42.9557 44.9372 43.425H48.2922Z" fill="#0980D0"/>
</svg>
