<svg width="63" height="52" viewBox="0 0 63 52" fill="none" xmlns="http://www.w3.org/2000/svg">
<path d="M35.1681 16.0004C35.0048 18.2036 33.3346 20.0008 31.5011 20.0008C29.6675 20.0008 27.9945 18.204 27.834 16.0004C27.6673 13.7085 29.2925 12 31.5011 12C33.7096 12 35.3348 13.7502 35.1681 16.0004Z" stroke="#9597A7" stroke-width="1.5" stroke-linecap="round" stroke-linejoin="round"/>
<path d="M31.4998 22.667C27.8749 22.667 24.1959 24.6669 23.5151 28.4417C23.433 28.8967 23.6905 29.3334 24.1667 29.3334H38.8328C39.3095 29.3334 39.567 28.8967 39.4849 28.4417C38.8037 24.6669 35.1247 22.667 31.4998 22.667Z" stroke="#9597A7" stroke-width="1.5" stroke-miterlimit="10"/>
<path d="M20.6607 41.632C20.6607 42.0207 20.5691 42.3873 20.3857 42.732C20.2024 43.0767 19.9091 43.359 19.5057 43.579C19.1024 43.7917 18.5854 43.898 17.9547 43.898H16.5687V47H15.3147V39.355H17.9547C18.5414 39.355 19.0364 39.4577 19.4397 39.663C19.8504 39.861 20.1547 40.1323 20.3527 40.477C20.5581 40.8217 20.6607 41.2067 20.6607 41.632ZM17.9547 42.875C18.4314 42.875 18.7871 42.7687 19.0217 42.556C19.2564 42.336 19.3737 42.028 19.3737 41.632C19.3737 40.796 18.9007 40.378 17.9547 40.378H16.5687V42.875H17.9547ZM23.1107 41.819C23.2941 41.511 23.5361 41.2727 23.8367 41.104C24.1447 40.928 24.5077 40.84 24.9257 40.84V42.138H24.6067C24.1154 42.138 23.7414 42.2627 23.4847 42.512C23.2354 42.7613 23.1107 43.194 23.1107 43.81V47H21.8567V40.939H23.1107V41.819ZM28.7074 47.099C28.1354 47.099 27.6184 46.9707 27.1564 46.714C26.6944 46.45 26.3314 46.0833 26.0674 45.614C25.8034 45.1373 25.6714 44.5873 25.6714 43.964C25.6714 43.348 25.8071 42.8017 26.0784 42.325C26.3498 41.8483 26.7201 41.4817 27.1894 41.225C27.6588 40.9683 28.1831 40.84 28.7624 40.84C29.3418 40.84 29.8661 40.9683 30.3354 41.225C30.8048 41.4817 31.1751 41.8483 31.4464 42.325C31.7178 42.8017 31.8534 43.348 31.8534 43.964C31.8534 44.58 31.7141 45.1263 31.4354 45.603C31.1568 46.0797 30.7754 46.45 30.2914 46.714C29.8148 46.9707 29.2868 47.099 28.7074 47.099ZM28.7074 46.01C29.0301 46.01 29.3308 45.933 29.6094 45.779C29.8954 45.625 30.1264 45.394 30.3024 45.086C30.4784 44.778 30.5664 44.404 30.5664 43.964C30.5664 43.524 30.4821 43.1537 30.3134 42.853C30.1448 42.545 29.9211 42.314 29.6424 42.16C29.3638 42.006 29.0631 41.929 28.7404 41.929C28.4178 41.929 28.1171 42.006 27.8384 42.16C27.5671 42.314 27.3508 42.545 27.1894 42.853C27.0281 43.1537 26.9474 43.524 26.9474 43.964C26.9474 44.6167 27.1124 45.1227 27.4424 45.482C27.7798 45.834 28.2014 46.01 28.7074 46.01ZM35.6341 41.962H34.5121V47H33.2471V41.962H32.5321V40.939H33.2471V40.51C33.2471 39.8133 33.4304 39.3073 33.7971 38.992C34.1711 38.6693 34.7541 38.508 35.5461 38.508V39.553C35.1647 39.553 34.8971 39.6263 34.7431 39.773C34.5891 39.9123 34.5121 40.158 34.5121 40.51V40.939H35.6341V41.962ZM37.3834 40.136C37.1561 40.136 36.9654 40.059 36.8114 39.905C36.6574 39.751 36.5804 39.5603 36.5804 39.333C36.5804 39.1057 36.6574 38.915 36.8114 38.761C36.9654 38.607 37.1561 38.53 37.3834 38.53C37.6034 38.53 37.7904 38.607 37.9444 38.761C38.0984 38.915 38.1754 39.1057 38.1754 39.333C38.1754 39.5603 38.0984 39.751 37.9444 39.905C37.7904 40.059 37.6034 40.136 37.3834 40.136ZM37.9994 40.939V47H36.7454V40.939H37.9994ZM40.8998 38.86V47H39.6458V38.86H40.8998ZM48.1012 43.821C48.1012 44.0483 48.0865 44.2537 48.0572 44.437H43.4262C43.4629 44.921 43.6425 45.3097 43.9652 45.603C44.2879 45.8963 44.6839 46.043 45.1532 46.043C45.8279 46.043 46.3045 45.7607 46.5832 45.196H47.9362C47.7529 45.7533 47.4192 46.2117 46.9352 46.571C46.4585 46.923 45.8645 47.099 45.1532 47.099C44.5739 47.099 44.0532 46.9707 43.5912 46.714C43.1365 46.45 42.7772 46.0833 42.5132 45.614C42.2565 45.1373 42.1282 44.5873 42.1282 43.964C42.1282 43.3407 42.2529 42.7943 42.5022 42.325C42.7589 41.8483 43.1145 41.4817 43.5692 41.225C44.0312 40.9683 44.5592 40.84 45.1532 40.84C45.7252 40.84 46.2349 40.9647 46.6822 41.214C47.1295 41.4633 47.4779 41.8153 47.7272 42.27C47.9765 42.7173 48.1012 43.2343 48.1012 43.821ZM46.7922 43.425C46.7849 42.963 46.6199 42.5927 46.2972 42.314C45.9745 42.0353 45.5749 41.896 45.0982 41.896C44.6655 41.896 44.2952 42.0353 43.9872 42.314C43.6792 42.5853 43.4959 42.9557 43.4372 43.425H46.7922Z" fill="#9597A7"/>
</svg>
