<svg width="70" height="52" viewBox="0 0 70 52" fill="none" xmlns="http://www.w3.org/2000/svg">
<mask id="path-1-inside-1_15108_48945" fill="white">
<path d="M3.5 0H65.5V52H3.5V0Z"/>
</mask>
<path d="M3.5 1H65.5V-1H3.5V1Z" fill="#0980D0" mask="url(#path-1-inside-1_15108_48945)"/>
<rect x="2" width="65" height="1" fill="#0980D0"/>
<path d="M45.1716 10.8329C45.0182 10.6796 44.8238 10.5738 44.6118 10.5284C44.3997 10.483 44.179 10.4999 43.9763 10.577L25.2249 17.6743H25.2211C25.0049 17.7575 24.8197 17.9053 24.6907 18.0977C24.5616 18.2901 24.4951 18.5176 24.5003 18.7492C24.5054 18.9808 24.5819 19.2052 24.7193 19.3917C24.8567 19.5781 25.0483 19.7177 25.268 19.7912L25.2872 19.7973L31.7232 22.5456C31.8487 22.5837 31.982 22.5882 32.1099 22.5586C32.2377 22.5291 32.3555 22.4666 32.4516 22.3773L42.781 12.7524C42.8118 12.7216 42.8483 12.6972 42.8885 12.6806C42.9287 12.6639 42.9718 12.6553 43.0154 12.6553C43.0589 12.6553 43.102 12.6639 43.1422 12.6806C43.1824 12.6972 43.219 12.7216 43.2497 12.7524C43.2805 12.7832 43.3049 12.8197 43.3216 12.86C43.3383 12.9002 43.3468 12.9433 43.3468 12.9868C43.3468 13.0303 43.3383 13.0734 43.3216 13.1136C43.3049 13.1539 43.2805 13.1904 43.2497 13.2212L33.6244 23.5459C33.5351 23.642 33.4726 23.7598 33.4431 23.8876C33.4135 24.0154 33.418 24.1488 33.4562 24.2743L36.2054 30.714C36.2082 30.7234 36.211 30.7318 36.2143 30.7407C36.3643 31.1752 36.744 31.4818 37.2029 31.5024C37.223 31.5024 37.2301 31.5024 37.2497 31.5024C37.4814 31.5037 37.7081 31.4353 37.9004 31.3061C38.0927 31.1769 38.2416 30.9928 38.3279 30.7777L45.4243 12.0315C45.5025 11.8287 45.5202 11.6075 45.4754 11.3948C45.4305 11.1821 45.325 10.9869 45.1716 10.8329Z" fill="#0980D0"/>
<path d="M8.91118 39.355V47H7.65718V41.764L5.32518 47H4.45618L2.11318 41.764V47H0.85918V39.355H2.21218L4.89618 45.35L7.56918 39.355H8.91118ZM16.0154 40.939L12.2974 49.849H10.9994L12.2314 46.901L9.84438 40.939H11.2414L12.9464 45.559L14.7174 40.939H16.0154ZM23.7901 47L22.0301 43.942H21.0731V47H19.8191V39.355H22.4591C23.0458 39.355 23.5408 39.4577 23.9441 39.663C24.3548 39.8683 24.6591 40.1433 24.8571 40.488C25.0625 40.8327 25.1651 41.2177 25.1651 41.643C25.1651 42.1417 25.0185 42.5963 24.7251 43.007C24.4391 43.4103 23.9955 43.6853 23.3941 43.832L25.2861 47H23.7901ZM21.0731 42.941H22.4591C22.9285 42.941 23.2805 42.8237 23.5151 42.589C23.7571 42.3543 23.8781 42.039 23.8781 41.643C23.8781 41.247 23.7608 40.939 23.5261 40.719C23.2915 40.4917 22.9358 40.378 22.4591 40.378H21.0731V42.941ZM32.3243 43.821C32.3243 44.0483 32.3097 44.2537 32.2803 44.437H27.6493C27.686 44.921 27.8657 45.3097 28.1883 45.603C28.511 45.8963 28.907 46.043 29.3763 46.043C30.051 46.043 30.5277 45.7607 30.8063 45.196H32.1593C31.976 45.7533 31.6423 46.2117 31.1583 46.571C30.6817 46.923 30.0877 47.099 29.3763 47.099C28.797 47.099 28.2763 46.9707 27.8143 46.714C27.3597 46.45 27.0003 46.0833 26.7363 45.614C26.4797 45.1373 26.3513 44.5873 26.3513 43.964C26.3513 43.3407 26.476 42.7943 26.7253 42.325C26.982 41.8483 27.3377 41.4817 27.7923 41.225C28.2543 40.9683 28.7823 40.84 29.3763 40.84C29.9483 40.84 30.458 40.9647 30.9053 41.214C31.3527 41.4633 31.701 41.8153 31.9503 42.27C32.1997 42.7173 32.3243 43.2343 32.3243 43.821ZM31.0153 43.425C31.008 42.963 30.843 42.5927 30.5203 42.314C30.1977 42.0353 29.798 41.896 29.3213 41.896C28.8887 41.896 28.5183 42.0353 28.2103 42.314C27.9023 42.5853 27.719 42.9557 27.6603 43.425H31.0153ZM33.1404 43.942C33.1404 43.3333 33.2651 42.7943 33.5144 42.325C33.7711 41.8557 34.1157 41.4927 34.5484 41.236C34.9884 40.972 35.4761 40.84 36.0114 40.84C36.4807 40.84 36.8951 40.9353 37.2544 41.126C37.6211 41.3167 37.9034 41.5477 38.1014 41.819V40.939H39.3664V49.882H38.1014V46.12C37.9034 46.3913 37.6174 46.6223 37.2434 46.813C36.8694 47.0037 36.4441 47.099 35.9674 47.099C35.4467 47.099 34.9701 46.967 34.5374 46.703C34.1121 46.4317 33.7711 46.0577 33.5144 45.581C33.2651 45.097 33.1404 44.5507 33.1404 43.942ZM38.1014 43.964C38.1014 43.546 38.0134 43.183 37.8374 42.875C37.6687 42.567 37.4451 42.3323 37.1664 42.171C36.8877 42.0097 36.5871 41.929 36.2644 41.929C35.9417 41.929 35.6411 42.0097 35.3624 42.171C35.0837 42.325 34.8564 42.556 34.6804 42.864C34.5117 43.1647 34.4274 43.524 34.4274 43.942C34.4274 44.36 34.5117 44.7267 34.6804 45.042C34.8564 45.3573 35.0837 45.5993 35.3624 45.768C35.6484 45.9293 35.9491 46.01 36.2644 46.01C36.5871 46.01 36.8877 45.9293 37.1664 45.768C37.4451 45.6067 37.6687 45.372 37.8374 45.064C38.0134 44.7487 38.1014 44.382 38.1014 43.964ZM46.5025 40.939V47H45.2485V46.285C45.0505 46.5343 44.7901 46.7323 44.4675 46.879C44.1521 47.0183 43.8148 47.088 43.4555 47.088C42.9788 47.088 42.5498 46.989 42.1685 46.791C41.7945 46.593 41.4975 46.2997 41.2775 45.911C41.0648 45.5223 40.9585 45.053 40.9585 44.503V40.939H42.2015V44.316C42.2015 44.8587 42.3371 45.2767 42.6085 45.57C42.8798 45.856 43.2501 45.999 43.7195 45.999C44.1888 45.999 44.5591 45.856 44.8305 45.57C45.1091 45.2767 45.2485 44.8587 45.2485 44.316V40.939H46.5025ZM53.712 43.821C53.712 44.0483 53.6974 44.2537 53.668 44.437H49.037C49.0737 44.921 49.2534 45.3097 49.576 45.603C49.8987 45.8963 50.2947 46.043 50.764 46.043C51.4387 46.043 51.9154 45.7607 52.194 45.196H53.547C53.3637 45.7533 53.03 46.2117 52.546 46.571C52.0694 46.923 51.4754 47.099 50.764 47.099C50.1847 47.099 49.664 46.9707 49.202 46.714C48.7474 46.45 48.388 46.0833 48.124 45.614C47.8674 45.1373 47.739 44.5873 47.739 43.964C47.739 43.3407 47.8637 42.7943 48.113 42.325C48.3697 41.8483 48.7254 41.4817 49.18 41.225C49.642 40.9683 50.17 40.84 50.764 40.84C51.336 40.84 51.8457 40.9647 52.293 41.214C52.7404 41.4633 53.0887 41.8153 53.338 42.27C53.5874 42.7173 53.712 43.2343 53.712 43.821ZM52.403 43.425C52.3957 42.963 52.2307 42.5927 51.908 42.314C51.5854 42.0353 51.1857 41.896 50.709 41.896C50.2764 41.896 49.906 42.0353 49.598 42.314C49.29 42.5853 49.1067 42.9557 49.048 43.425H52.403ZM57.1461 47.099C56.6694 47.099 56.2404 47.0147 55.8591 46.846C55.4851 46.67 55.1881 46.4353 54.9681 46.142C54.7481 45.8413 54.6308 45.5077 54.6161 45.141H55.9141C55.9361 45.3977 56.0571 45.614 56.2771 45.79C56.5044 45.9587 56.7868 46.043 57.1241 46.043C57.4761 46.043 57.7474 45.977 57.9381 45.845C58.1361 45.7057 58.2351 45.5297 58.2351 45.317C58.2351 45.0897 58.1251 44.921 57.9051 44.811C57.6924 44.701 57.3514 44.58 56.8821 44.448C56.4274 44.3233 56.0571 44.2023 55.7711 44.085C55.4851 43.9677 55.2358 43.788 55.0231 43.546C54.8178 43.304 54.7151 42.985 54.7151 42.589C54.7151 42.2663 54.8104 41.973 55.0011 41.709C55.1918 41.4377 55.4631 41.225 55.8151 41.071C56.1744 40.917 56.5851 40.84 57.0471 40.84C57.7364 40.84 58.2901 41.016 58.7081 41.368C59.1334 41.7127 59.3608 42.1857 59.3901 42.787H58.1361C58.1141 42.5157 58.0041 42.2993 57.8061 42.138C57.6081 41.9767 57.3404 41.896 57.0031 41.896C56.6731 41.896 56.4201 41.9583 56.2441 42.083C56.0681 42.2077 55.9801 42.3727 55.9801 42.578C55.9801 42.7393 56.0388 42.875 56.1561 42.985C56.2734 43.095 56.4164 43.183 56.5851 43.249C56.7538 43.3077 57.0031 43.3847 57.3331 43.48C57.7731 43.5973 58.1324 43.7183 58.4111 43.843C58.6971 43.9603 58.9428 44.1363 59.1481 44.371C59.3534 44.6057 59.4598 44.9173 59.4671 45.306C59.4671 45.6507 59.3718 45.9587 59.1811 46.23C58.9904 46.5013 58.7191 46.714 58.3671 46.868C58.0224 47.022 57.6154 47.099 57.1461 47.099ZM62.2851 41.962V45.317C62.2851 45.5443 62.3364 45.7093 62.4391 45.812C62.5491 45.9073 62.7324 45.955 62.9891 45.955H63.7591V47H62.7691C62.2044 47 61.7717 46.868 61.4711 46.604C61.1704 46.34 61.0201 45.911 61.0201 45.317V41.962H60.3051V40.939H61.0201V39.432H62.2851V40.939H63.7591V41.962H62.2851ZM67.1148 47.099C66.6382 47.099 66.2092 47.0147 65.8278 46.846C65.4538 46.67 65.1568 46.4353 64.9368 46.142C64.7168 45.8413 64.5995 45.5077 64.5848 45.141H65.8828C65.9048 45.3977 66.0258 45.614 66.2458 45.79C66.4732 45.9587 66.7555 46.043 67.0928 46.043C67.4448 46.043 67.7162 45.977 67.9068 45.845C68.1048 45.7057 68.2038 45.5297 68.2038 45.317C68.2038 45.0897 68.0938 44.921 67.8738 44.811C67.6612 44.701 67.3202 44.58 66.8508 44.448C66.3962 44.3233 66.0258 44.2023 65.7398 44.085C65.4538 43.9677 65.2045 43.788 64.9918 43.546C64.7865 43.304 64.6838 42.985 64.6838 42.589C64.6838 42.2663 64.7792 41.973 64.9698 41.709C65.1605 41.4377 65.4318 41.225 65.7838 41.071C66.1432 40.917 66.5538 40.84 67.0158 40.84C67.7052 40.84 68.2588 41.016 68.6768 41.368C69.1022 41.7127 69.3295 42.1857 69.3588 42.787H68.1048C68.0828 42.5157 67.9728 42.2993 67.7748 42.138C67.5768 41.9767 67.3092 41.896 66.9718 41.896C66.6418 41.896 66.3888 41.9583 66.2128 42.083C66.0368 42.2077 65.9488 42.3727 65.9488 42.578C65.9488 42.7393 66.0075 42.875 66.1248 42.985C66.2422 43.095 66.3852 43.183 66.5538 43.249C66.7225 43.3077 66.9718 43.3847 67.3018 43.48C67.7418 43.5973 68.1012 43.7183 68.3798 43.843C68.6658 43.9603 68.9115 44.1363 69.1168 44.371C69.3222 44.6057 69.4285 44.9173 69.4358 45.306C69.4358 45.6507 69.3405 45.9587 69.1498 46.23C68.9592 46.5013 68.6878 46.714 68.3358 46.868C67.9912 47.022 67.5842 47.099 67.1148 47.099Z" fill="#0980D0"/>
</svg>
