<svg width="71" height="52" viewBox="0 0 71 52" fill="none" xmlns="http://www.w3.org/2000/svg">
<path d="M25.9897 18.3744L44.7397 11.278C44.8073 11.2522 44.881 11.2464 44.9518 11.2615C45.0227 11.2766 45.0876 11.3119 45.1388 11.3631C45.19 11.4143 45.2253 11.4793 45.2404 11.5501C45.2555 11.6209 45.2498 11.6946 45.2239 11.7623L38.1275 30.5123C38.0993 30.5835 38.0499 30.6443 37.9861 30.6866C37.9222 30.729 37.847 30.7507 37.7704 30.749C37.6938 30.7472 37.6196 30.7221 37.5578 30.6769C37.4959 30.6318 37.4494 30.5687 37.4244 30.4963L34.265 22.7109C34.2282 22.6005 34.1662 22.5003 34.0839 22.418C34.0017 22.3358 33.9014 22.2738 33.7911 22.2369L26.0056 19.0804C25.9323 19.056 25.8683 19.0095 25.8224 18.9473C25.7764 18.8852 25.7509 18.8103 25.7491 18.733C25.7474 18.6558 25.7696 18.5798 25.8126 18.5156C25.8557 18.4514 25.9175 18.4021 25.9897 18.3744V18.3744Z" stroke="#9597A7" stroke-width="1.5" stroke-linecap="round" stroke-linejoin="round"/>
<path d="M45.0635 11.4385L34.1416 22.3604" stroke="#9597A7" stroke-width="1.5" stroke-linecap="round" stroke-linejoin="round"/>
<path d="M9.41118 39.355V47H8.15718V41.764L5.82518 47H4.95618L2.61318 41.764V47H1.35918V39.355H2.71218L5.39618 45.35L8.06918 39.355H9.41118ZM16.5154 40.939L12.7974 49.849H11.4994L12.7314 46.901L10.3444 40.939H11.7414L13.4464 45.559L15.2174 40.939H16.5154ZM24.2901 47L22.5301 43.942H21.5731V47H20.3191V39.355H22.9591C23.5458 39.355 24.0408 39.4577 24.4441 39.663C24.8548 39.8683 25.1591 40.1433 25.3571 40.488C25.5625 40.8327 25.6651 41.2177 25.6651 41.643C25.6651 42.1417 25.5185 42.5963 25.2251 43.007C24.9391 43.4103 24.4955 43.6853 23.8941 43.832L25.7861 47H24.2901ZM21.5731 42.941H22.9591C23.4285 42.941 23.7805 42.8237 24.0151 42.589C24.2571 42.3543 24.3781 42.039 24.3781 41.643C24.3781 41.247 24.2608 40.939 24.0261 40.719C23.7915 40.4917 23.4358 40.378 22.9591 40.378H21.5731V42.941ZM32.8243 43.821C32.8243 44.0483 32.8097 44.2537 32.7803 44.437H28.1493C28.186 44.921 28.3657 45.3097 28.6883 45.603C29.011 45.8963 29.407 46.043 29.8763 46.043C30.551 46.043 31.0277 45.7607 31.3063 45.196H32.6593C32.476 45.7533 32.1423 46.2117 31.6583 46.571C31.1817 46.923 30.5877 47.099 29.8763 47.099C29.297 47.099 28.7763 46.9707 28.3143 46.714C27.8597 46.45 27.5003 46.0833 27.2363 45.614C26.9797 45.1373 26.8513 44.5873 26.8513 43.964C26.8513 43.3407 26.976 42.7943 27.2253 42.325C27.482 41.8483 27.8377 41.4817 28.2923 41.225C28.7543 40.9683 29.2823 40.84 29.8763 40.84C30.4483 40.84 30.958 40.9647 31.4053 41.214C31.8527 41.4633 32.201 41.8153 32.4503 42.27C32.6997 42.7173 32.8243 43.2343 32.8243 43.821ZM31.5153 43.425C31.508 42.963 31.343 42.5927 31.0203 42.314C30.6977 42.0353 30.298 41.896 29.8213 41.896C29.3887 41.896 29.0183 42.0353 28.7103 42.314C28.4023 42.5853 28.219 42.9557 28.1603 43.425H31.5153ZM33.6404 43.942C33.6404 43.3333 33.7651 42.7943 34.0144 42.325C34.2711 41.8557 34.6157 41.4927 35.0484 41.236C35.4884 40.972 35.9761 40.84 36.5114 40.84C36.9807 40.84 37.3951 40.9353 37.7544 41.126C38.1211 41.3167 38.4034 41.5477 38.6014 41.819V40.939H39.8664V49.882H38.6014V46.12C38.4034 46.3913 38.1174 46.6223 37.7434 46.813C37.3694 47.0037 36.9441 47.099 36.4674 47.099C35.9467 47.099 35.4701 46.967 35.0374 46.703C34.6121 46.4317 34.2711 46.0577 34.0144 45.581C33.7651 45.097 33.6404 44.5507 33.6404 43.942ZM38.6014 43.964C38.6014 43.546 38.5134 43.183 38.3374 42.875C38.1687 42.567 37.9451 42.3323 37.6664 42.171C37.3877 42.0097 37.0871 41.929 36.7644 41.929C36.4417 41.929 36.1411 42.0097 35.8624 42.171C35.5837 42.325 35.3564 42.556 35.1804 42.864C35.0117 43.1647 34.9274 43.524 34.9274 43.942C34.9274 44.36 35.0117 44.7267 35.1804 45.042C35.3564 45.3573 35.5837 45.5993 35.8624 45.768C36.1484 45.9293 36.4491 46.01 36.7644 46.01C37.0871 46.01 37.3877 45.9293 37.6664 45.768C37.9451 45.6067 38.1687 45.372 38.3374 45.064C38.5134 44.7487 38.6014 44.382 38.6014 43.964ZM47.0025 40.939V47H45.7485V46.285C45.5505 46.5343 45.2901 46.7323 44.9675 46.879C44.6521 47.0183 44.3148 47.088 43.9555 47.088C43.4788 47.088 43.0498 46.989 42.6685 46.791C42.2945 46.593 41.9975 46.2997 41.7775 45.911C41.5648 45.5223 41.4585 45.053 41.4585 44.503V40.939H42.7015V44.316C42.7015 44.8587 42.8371 45.2767 43.1085 45.57C43.3798 45.856 43.7501 45.999 44.2195 45.999C44.6888 45.999 45.0591 45.856 45.3305 45.57C45.6091 45.2767 45.7485 44.8587 45.7485 44.316V40.939H47.0025ZM54.212 43.821C54.212 44.0483 54.1974 44.2537 54.168 44.437H49.537C49.5737 44.921 49.7534 45.3097 50.076 45.603C50.3987 45.8963 50.7947 46.043 51.264 46.043C51.9387 46.043 52.4154 45.7607 52.694 45.196H54.047C53.8637 45.7533 53.53 46.2117 53.046 46.571C52.5694 46.923 51.9754 47.099 51.264 47.099C50.6847 47.099 50.164 46.9707 49.702 46.714C49.2474 46.45 48.888 46.0833 48.624 45.614C48.3674 45.1373 48.239 44.5873 48.239 43.964C48.239 43.3407 48.3637 42.7943 48.613 42.325C48.8697 41.8483 49.2254 41.4817 49.68 41.225C50.142 40.9683 50.67 40.84 51.264 40.84C51.836 40.84 52.3457 40.9647 52.793 41.214C53.2404 41.4633 53.5887 41.8153 53.838 42.27C54.0874 42.7173 54.212 43.2343 54.212 43.821ZM52.903 43.425C52.8957 42.963 52.7307 42.5927 52.408 42.314C52.0854 42.0353 51.6857 41.896 51.209 41.896C50.7764 41.896 50.406 42.0353 50.098 42.314C49.79 42.5853 49.6067 42.9557 49.548 43.425H52.903ZM57.6461 47.099C57.1694 47.099 56.7404 47.0147 56.3591 46.846C55.9851 46.67 55.6881 46.4353 55.4681 46.142C55.2481 45.8413 55.1308 45.5077 55.1161 45.141H56.4141C56.4361 45.3977 56.5571 45.614 56.7771 45.79C57.0044 45.9587 57.2868 46.043 57.6241 46.043C57.9761 46.043 58.2474 45.977 58.4381 45.845C58.6361 45.7057 58.7351 45.5297 58.7351 45.317C58.7351 45.0897 58.6251 44.921 58.4051 44.811C58.1924 44.701 57.8514 44.58 57.3821 44.448C56.9274 44.3233 56.5571 44.2023 56.2711 44.085C55.9851 43.9677 55.7358 43.788 55.5231 43.546C55.3178 43.304 55.2151 42.985 55.2151 42.589C55.2151 42.2663 55.3104 41.973 55.5011 41.709C55.6918 41.4377 55.9631 41.225 56.3151 41.071C56.6744 40.917 57.0851 40.84 57.5471 40.84C58.2364 40.84 58.7901 41.016 59.2081 41.368C59.6334 41.7127 59.8608 42.1857 59.8901 42.787H58.6361C58.6141 42.5157 58.5041 42.2993 58.3061 42.138C58.1081 41.9767 57.8404 41.896 57.5031 41.896C57.1731 41.896 56.9201 41.9583 56.7441 42.083C56.5681 42.2077 56.4801 42.3727 56.4801 42.578C56.4801 42.7393 56.5388 42.875 56.6561 42.985C56.7734 43.095 56.9164 43.183 57.0851 43.249C57.2538 43.3077 57.5031 43.3847 57.8331 43.48C58.2731 43.5973 58.6324 43.7183 58.9111 43.843C59.1971 43.9603 59.4428 44.1363 59.6481 44.371C59.8534 44.6057 59.9598 44.9173 59.9671 45.306C59.9671 45.6507 59.8718 45.9587 59.6811 46.23C59.4904 46.5013 59.2191 46.714 58.8671 46.868C58.5224 47.022 58.1154 47.099 57.6461 47.099ZM62.7851 41.962V45.317C62.7851 45.5443 62.8364 45.7093 62.9391 45.812C63.0491 45.9073 63.2324 45.955 63.4891 45.955H64.2591V47H63.2691C62.7044 47 62.2717 46.868 61.9711 46.604C61.6704 46.34 61.5201 45.911 61.5201 45.317V41.962H60.8051V40.939H61.5201V39.432H62.7851V40.939H64.2591V41.962H62.7851ZM67.6148 47.099C67.1382 47.099 66.7092 47.0147 66.3278 46.846C65.9538 46.67 65.6568 46.4353 65.4368 46.142C65.2168 45.8413 65.0995 45.5077 65.0848 45.141H66.3828C66.4048 45.3977 66.5258 45.614 66.7458 45.79C66.9732 45.9587 67.2555 46.043 67.5928 46.043C67.9448 46.043 68.2162 45.977 68.4068 45.845C68.6048 45.7057 68.7038 45.5297 68.7038 45.317C68.7038 45.0897 68.5938 44.921 68.3738 44.811C68.1612 44.701 67.8202 44.58 67.3508 44.448C66.8962 44.3233 66.5258 44.2023 66.2398 44.085C65.9538 43.9677 65.7045 43.788 65.4918 43.546C65.2865 43.304 65.1838 42.985 65.1838 42.589C65.1838 42.2663 65.2792 41.973 65.4698 41.709C65.6605 41.4377 65.9318 41.225 66.2838 41.071C66.6432 40.917 67.0538 40.84 67.5158 40.84C68.2052 40.84 68.7588 41.016 69.1768 41.368C69.6022 41.7127 69.8295 42.1857 69.8588 42.787H68.6048C68.5828 42.5157 68.4728 42.2993 68.2748 42.138C68.0768 41.9767 67.8092 41.896 67.4718 41.896C67.1418 41.896 66.8888 41.9583 66.7128 42.083C66.5368 42.2077 66.4488 42.3727 66.4488 42.578C66.4488 42.7393 66.5075 42.875 66.6248 42.985C66.7422 43.095 66.8852 43.183 67.0538 43.249C67.2225 43.3077 67.4718 43.3847 67.8018 43.48C68.2418 43.5973 68.6012 43.7183 68.8798 43.843C69.1658 43.9603 69.4115 44.1363 69.6168 44.371C69.8222 44.6057 69.9285 44.9173 69.9358 45.306C69.9358 45.6507 69.8405 45.9587 69.6498 46.23C69.4592 46.5013 69.1878 46.714 68.8358 46.868C68.4912 47.022 68.0842 47.099 67.6148 47.099Z" fill="#9597A7"/>
</svg>
