<svg width="22" height="22" viewBox="0 0 22 22" fill="none" xmlns="http://www.w3.org/2000/svg">
<path fill-rule="evenodd" clip-rule="evenodd" d="M3.55546 1.72214C4.07118 1.20642 4.77065 0.916687 5.5 0.916687H12.8333C13.0764 0.916687 13.3096 1.01326 13.4815 1.18517L18.9815 6.68517C19.1534 6.85708 19.25 7.09024 19.25 7.33335V18.3334C19.25 19.0627 18.9603 19.7622 18.4445 20.2779C17.9288 20.7936 17.2293 21.0834 16.5 21.0834H5.5C4.77065 21.0834 4.07118 20.7936 3.55546 20.2779C3.03973 19.7622 2.75 19.0627 2.75 18.3334V3.66669C2.75 2.93734 3.03973 2.23787 3.55546 1.72214ZM5.5 2.75002C5.25688 2.75002 5.02373 2.8466 4.85182 3.01851C4.67991 3.19041 4.58333 3.42357 4.58333 3.66669V18.3334C4.58333 18.5765 4.67991 18.8096 4.85182 18.9815C5.02373 19.1534 5.25689 19.25 5.5 19.25H16.5C16.7431 19.25 16.9763 19.1534 17.1482 18.9815C17.3201 18.8096 17.4167 18.5765 17.4167 18.3334V7.71305L12.4536 2.75002H5.5Z" fill="#828397"/>
<path fill-rule="evenodd" clip-rule="evenodd" d="M12.8333 0.916687C13.3396 0.916687 13.75 1.32709 13.75 1.83335V6.41669H18.3333C18.8396 6.41669 19.25 6.82709 19.25 7.33335C19.25 7.83962 18.8396 8.25002 18.3333 8.25002H12.8333C12.3271 8.25002 11.9167 7.83962 11.9167 7.33335V1.83335C11.9167 1.32709 12.3271 0.916687 12.8333 0.916687Z" fill="#828397"/>
<path fill-rule="evenodd" clip-rule="evenodd" d="M6.41667 11.9167C6.41667 11.4104 6.82707 11 7.33333 11H14.6667C15.1729 11 15.5833 11.4104 15.5833 11.9167C15.5833 12.4229 15.1729 12.8334 14.6667 12.8334H7.33333C6.82707 12.8334 6.41667 12.4229 6.41667 11.9167Z" fill="#828397"/>
<path fill-rule="evenodd" clip-rule="evenodd" d="M6.41667 15.5834C6.41667 15.0771 6.82707 14.6667 7.33333 14.6667H14.6667C15.1729 14.6667 15.5833 15.0771 15.5833 15.5834C15.5833 16.0896 15.1729 16.5 14.6667 16.5H7.33333C6.82707 16.5 6.41667 16.0896 6.41667 15.5834Z" fill="#828397"/>
<path fill-rule="evenodd" clip-rule="evenodd" d="M6.41667 8.25002C6.41667 7.74376 6.82707 7.33335 7.33333 7.33335H9.16667C9.67293 7.33335 10.0833 7.74376 10.0833 8.25002C10.0833 8.75628 9.67293 9.16669 9.16667 9.16669H7.33333C6.82707 9.16669 6.41667 8.75628 6.41667 8.25002Z" fill="#828397"/>
</svg>
