<svg width="20" height="20" viewBox="0 0 20 20" fill="none" xmlns="http://www.w3.org/2000/svg">
<path fill-rule="evenodd" clip-rule="evenodd" d="M3.18117 10C3.18117 6.23444 6.23377 3.18184 9.99935 3.18184C13.7649 3.18184 16.8175 6.23444 16.8175 10C16.8175 13.7656 13.7649 16.8182 9.99935 16.8182C6.23377 16.8182 3.18117 13.7656 3.18117 10ZM9.99935 1.66669C5.39698 1.66669 1.66602 5.39765 1.66602 10C1.66602 14.6024 5.39698 18.3334 9.99935 18.3334C14.6017 18.3334 18.3327 14.6024 18.3327 10C18.3327 5.39765 14.6017 1.66669 9.99935 1.66669ZM10.7569 5.45457C10.7569 5.03617 10.4177 4.69699 9.99935 4.69699C9.58095 4.69699 9.24177 5.03617 9.24177 5.45457V10C9.24177 10.287 9.4039 10.5493 9.66055 10.6776L12.6909 12.1928C13.0651 12.3799 13.5201 12.2282 13.7072 11.854C13.8944 11.4797 13.7427 11.0247 13.3685 10.8376L10.7569 9.53181V5.45457Z" fill="#0D0423"/>
</svg>
