<svg width="14" height="14" viewBox="0 0 14 14" fill="none" xmlns="http://www.w3.org/2000/svg">
<path fill-rule="evenodd" clip-rule="evenodd" d="M2.22662 7.00002C2.22662 4.36412 4.36344 2.22729 6.99935 2.22729C9.63525 2.22729 11.7721 4.36412 11.7721 7.00002C11.7721 9.63592 9.63525 11.7727 6.99935 11.7727C4.36344 11.7727 2.22662 9.63592 2.22662 7.00002ZM6.99935 1.16669C3.77769 1.16669 1.16602 3.77836 1.16602 7.00002C1.16602 10.2217 3.77769 12.8334 6.99935 12.8334C10.221 12.8334 12.8327 10.2217 12.8327 7.00002C12.8327 3.77836 10.221 1.16669 6.99935 1.16669ZM7.52965 3.8182C7.52965 3.52532 7.29223 3.2879 6.99935 3.2879C6.70647 3.2879 6.46905 3.52532 6.46905 3.8182V7.00002C6.46905 7.20088 6.58253 7.38451 6.76219 7.47434L8.8834 8.53494C9.14536 8.66592 9.4639 8.55974 9.59488 8.29778C9.72586 8.03583 9.61968 7.71729 9.35772 7.58631L7.52965 6.67227V3.8182Z" fill="white"/>
</svg>
